<?xml version="1.0" standalone="no"?>
<!DOCTYPE svg PUBLIC "-//W3C//DTD SVG 1.1//EN" "http://www.w3.org/Graphics/SVG/1.1/DTD/svg11.dtd" >
<svg xmlns="http://www.w3.org/2000/svg">
<metadata>Generated by IcoMoon</metadata>
<defs>
<font id="icomoon" horiz-adv-x="1024">
<font-face units-per-em="1024" ascent="960" descent="-64" />
<missing-glyph horiz-adv-x="1024" />
<glyph unicode="&#x20;" horiz-adv-x="512" d="" />
<glyph unicode="&#xe5ca;" glyph-name="check" d="M384 235.867l452 452 60-60-512-512-238 238 60 60z" />
<glyph unicode="&#xe900;" glyph-name="carriage" horiz-adv-x="1638" d="M407.647 442.83v42.972h-23.137v-42.972h23.121zM477.041 421.352l-0.008 0.004 0.001-0.004zM468.773 490.753c-23.137-4.959-41.299-4.959-44.616-4.959v-44.614c21.491-6.616 33.060-9.917 52.876-19.825-4.959 23.137-8.26 52.872-8.26 69.398zM369.632 426.31c0 0-54.533-8.259-92.532-46.266-3.301-3.301-4.959 0-4.959 0s0 3.309 1.651 6.618c16.535 21.469 64.452 52.859 94.19 56.168v46.267c-11.561 1.65-23.137 4.959-26.438 4.959-28.087-24.795-80.963-64.444-130.537-87.572-4.96-24.78 11.561-36.356 11.561-47.917 0-3.309-1.651-4.959-3.301-6.618-9.91-9.91-52.859-41.299-57.827-52.86-3.301-8.268 6.618-66.094 6.618-85.93 0-14.868 11.561-23.121 11.561-23.121 4.959-6.618 26.437-33.055 36.356-33.055 6.618 3.309 16.52 42.958-6.618 38.006-11.56-1.65-11.56 0-9.902 6.618 0 3.309-1.658 6.618-4.96 8.26-14.868 6.618-18.177 79.313 0 85.923 64.444 24.778 110.71 42.958 114.011 71.053 19.828-26.437-26.437-49.567-28.088-49.567 3.309-11.56 11.561-31.396 9.919-41.299-1.658-6.618 3.309-31.412 3.309-31.412 6.601-14.861 6.601-67.736 0-74.346-1.674-1.65-3.316-6.618-4.966-9.91-4.96-6.618-16.52-16.527-18.179-29.738-1.65-8.259 39.665 0 38.015 11.561 0 3.316-3.309 8.268 0 11.576 1.65 3.309 4.959 1.65 8.26 3.309 3.316 3.309 6.618 8.26 4.966 13.219-6.616 18.177-8.26 54.533-3.308 71.053 1.658 4.96 3.308 31.397 1.658 39.657 0 6.616 11.561 54.533 11.561 56.184 13.234-3.309 29.738-6.618 57.834-6.618v61.151l-19.836 34.665-0.018-0.015zM612.53 358.557v0.009c18.179 29.737 18.179 51.217 18.179 51.217 0 31.397-19.828 57.836-33.047 69.404-36.356 29.737-112.36 14.868-112.36 14.868-1.65-11.56-1.65-47.917 8.26-80.964 34.697-19.828 97.482-47.917 118.968-54.534zM1238.757 328.812h1.642v0.71c-0.553-0.205-1.097-0.43-1.642-0.701v-0.009zM508.41 350.31c-18.168 29.725-24.759 42.957-26.418 51.213-24.78 16.529-51.226 23.121-57.827 23.121-4.959-8.251-18.177-33.039-18.177-33.039v-61.135c34.688 4.959 69.375 34.679 102.422 19.841zM528.266 320.544l-0.008 0.009c-8.26 13.234-24.78 31.412-54.533 16.535 0 0-1.642-26.437 11.576-36.356 4.959-4.959 19.828-23.119 14.87-36.355-1.658-6.601-33.047-33.039-41.299-41.299-16.529-13.235-13.235-21.487-13.235-21.487 3.316-14.876-8.252-41.313 1.674-52.882l1.642-1.659c9.925 0 24.795 23.121 24.795 28.081 0 3.309-9.919 16.52-9.919 18.177 1.658 3.301 3.309 1.651 6.618 6.602 1.642 1.658 1.642 6.618 1.642 8.259 1.658 9.919 44.616 44.616 52.876 49.574 13.219 8.26 3.3 18.177 3.3 18.177-16.517 19.836-1.649 42.973 0.001 44.623zM1240.399 441.171v-111.651c2.801 1.037 5.788 1.494 9.919 4.257 29.737 77.655 72.712 105.742 76.012 107.392h-85.93zM508.439 350.299c-0.009 0.004-0.019 0.008-0.028 0.012 0.004-0.006 0.008-0.013 0.013-0.020l0.015 0.009zM1091.708 328.82v112.36h-84.271c-1.658-77.655 64.435-105.751 84.271-112.36zM384.509 427.945l11.56-23.121 11.561 23.121c-6.601 1.674-14.861 1.674-23.121 0zM141.62 482.486c0 4.968-1.651 3.316-1.651 3.316-8.268-1.658-34.705-4.959-42.973-3.308l0.008-0.017c0 0 0-1.651 1.658-4.943 3.309-11.576 3.309-16.527 14.87-16.527 1.651 0 24.78-1.65 23.121 13.219 0.001 1.651 6.619 4.96 4.969 8.26zM273.824 170.202c11.56 0 8.26 16.536 8.26 16.536-3.309 6.618-9.919 56.177-4.959 76.004 3.309 13.219-3.301 41.299-4.96 51.226-11.576-4.959-21.494-9.917-42.973-18.177v-0.017c3.301-18.177 18.179-33.047 21.478-39.656 6.618-18.177 8.275-44.614 9.926-49.567 1.65-19.821-8.26-37.999-18.179-39.649-4.959-1.65-18.179-18.177-18.179-21.478 4.96-8.26 34.706-3.309 34.706-3.309 4.96 1.65 6.618 13.219 6.618 13.219-4.965 13.219 6.602 14.868 8.261 14.868zM111.85 575.026c-16.504 0-34.682-6.618-37.999-6.618-3.308-21.471 6.618-28.081 6.618-28.081 8.252-8.26 13.211-36.356 14.861-38.006 4.96-3.309 16.52-1.65 21.478-1.65-21.471 1.658-14.853 21.486-14.853 21.486l0.015-0.017c-1.674 1.659-1.674 8.268 3.293 14.87h-9.911v1.658l-3.308 24.78 21.478 3.308c0 0.003 0 4.97-1.673 8.27zM209.357 540.329l0.004-0.010 0.004 0.003zM204.398 356.908h0.008c-8.26 18.177-16.52 36.356 1.65 102.45-14.87-11.56-39.656-34.705-46.266-46.267-6.618-19.827 13.219-38.006 14.868-47.917 1.651-14.868-77.654-38.006-80.963-39.656-6.618-3.309-11.561-11.56-11.561-18.177s-16.527-51.226-16.527-54.533c-1.674-4.943-6.616-34.697-6.616-34.697 1.658-9.91 1.658-39.649 1.658-39.649 36.356 8.269 23.121 36.356 21.478 36.356 0 1.659 1.658 1.659 3.309 3.309 1.658 3.309 3.309 9.917 1.658 13.219-4.96 6.618-3.309 9.91-3.309 9.91 6.618 26.437 21.478 61.135 31.397 66.094 1.658 1.651 38.006 6.618 49.567 8.26 3.293 8.252 41.299 39.649 39.649 41.299zM206.056 475.885c6.615 18.173 9.908 51.208 3.306 64.433-3.322-3.308-16.526-6.616-23.133-13.216 4.959-13.22-29.738-59.478-29.738-90.89v-1.642c6.616 8.269 38.004 34.706 49.565 41.316zM73.875 583.286c1.65 0 6.601 1.642 13.211 3.301 3.301 0 6.618 1.65 9.91 1.65 3.293 0 8.26 1.651 11.561 1.651-9.902 14.868-28.081 41.315-28.081 41.315v-8.268c-3.301-14.87 4.96-28.088 4.96-28.088-8.26-4.959-11.561-8.26-11.561-11.561zM486.976 262.71c-1.658 6.618-3.309 11.576-4.966 14.876l-0.017 0.009c-8.26 8.26-26.437 34.697-24.78 52.876-11.561-3.309-26.437-9.917-26.437-9.917 1.674-23.121 24.795-33.047 24.795-51.218 0-9.919-26.437-29.738-34.697-38.006-16.527-13.235-13.219-21.486-13.219-21.486 4.959-11.561-6.618-34.697 1.658-49.567 0-1.659 1.65-1.659 3.309-1.659 9.91 0 24.78 21.478 24.78 28.087 0 1.651-16.504 16.52-9.902 16.52 9.91 1.659 8.26 6.618 8.26 13.219 0 13.22 51.217 42.958 51.217 46.267zM627.4 351.956l0.005 0.008-0.005 0.001zM615.839 472.568c13.211-9.91 52.856-61.124 11.566-120.605 13.216-3.316 19.825-3.316 36.349-4.966 9.911 94.184-14.868 114.011-47.916 125.572zM685.234 361.883l51.218 18.162c-49.559 147.058-110.702 122.269-135.482 105.75h-0.008c1.65-1.659 6.618-4.959 6.618-4.959 87.564-1.65 77.654-112.36 77.654-118.953zM620.79 188.364c-1.65 6.618-18.177 46.273-13.219 76.020-3.309 1.65-18.177 9.91-24.795 14.868-9.91 4.96-28.081 16.527-41.299 29.738 0 0-6.618-9.91-4.959-21.478 39.656-16.527 62.785-52.876 61.135-100.791 0-9.917-16.52-29.738-16.52-29.738-9.919-13.219-9.919-18.177-9.919-18.177 18.179-3.309 38.006 1.65 38.006 1.65 1.659 1.676 1.659 9.926 0 11.578-9.917 9.917 1.659 16.527 1.659 16.527 6.618 4.942 11.56 11.56 9.917 19.82l-0.008-0.017zM204.406 649.363c72.695 3.309 90.874-47.917 110.701-99.132 3.301-11.561 14.87-46.267 46.266-51.226l1.651 3.309c-34.697 29.737-16.52 152.017-123.921 161.926-34.697 3.309-44.614-6.618-44.614-8.26-0.001 0 4.957-6.618 9.917-6.618zM192.837 616.325c4.96 11.561 3.309 19.828 1.651 21.478-4.96 3.309-24.78 14.868-31.397 21.478-1.658 0 1.651-14.868 3.309-18.177 3.316-8.26 8.268-9.91 8.268-9.91s-9.919-4.96-13.219-8.268c3.3-0.001 18.177 4.966 31.388-6.602zM148.238 510.583c1.65 1.65 3.309-1.659 4.959 0 1.659 1.65 1.659 3.3 0 3.3-9.919 3.293-24.795 11.561-34.705 23.121l-0.017 0.009c-1.642 1.658-3.301-3.301-3.301-6.618-1.651-3.301 1.658-3.301 1.658-4.943 0-4.966 0-11.576 4.96-16.527 3.309-3.309 8.26-4.959 14.868-4.959 1.659 0 8.269 1.65 11.578 6.618zM156.489 575.026v1.658c8.26 16.52 14.868 26.437 14.868 26.437h1.659l16.527-8.252 4.959 9.911c-8.26 8.268-28.088 9.919-36.356 9.919-4.943-8.26-13.211-23.121-13.211-31.397-1.651-11.561-14.87-36.356-14.87-36.356l16.504-13.219v-0.017c4.959 3.301 23.137 26.437 24.795 33.047l-14.876 8.269zM1106.578 325.519c18.177-4.959 36.356-8.26 59.478-8.26 0 0 38.013 0 57.834 8.26v279.237h-117.311v-279.237zM1185.875 434.579l-0.008-0.017c0-4.943-1.651-6.601-1.651-6.601h-33.046c0 0-1.651 3.309-1.651 6.618v4.942h36.356v-4.942zM1123.081 588.244h84.273v-135.505h-84.273v135.505zM75.519 603.107c-4.96 3.309-19.828 9.919-26.438 9.919 0 0 6.615-14.871 14.865-23.131 1.678 3.31 8.274 11.553 11.574 13.212zM63.949 589.888l-0.004 0.005-0.004-0.005zM1040.484 543.63l3.301 49.558h-18.179l3.301-49.567zM328.334 499.007c-21.471 13.235-34.682 59.476-44.608 82.621h-0.017c-9.917 23.121-36.356 51.226-69.394 56.177 3.309-49.567-51.217-107.393-46.258-104.092 13.219 9.91 21.478 9.91 31.397 16.52 4.959 3.309 14.87 14.868 14.87 14.868 29.738-29.738 3.308-128.887 0-142.099 56.183 26.438 107.409 71.053 114.010 76.005zM1314.762 388.28c16.527 21.478 51.226 64.444 132.187 64.444 0 0 3.301 0 3.301 4.96s-3.292 4.959-3.292 4.959c-16.52 0-46.267-3.301-62.787-4.959h-14.868c-8.26 1.658-14.868 9.917-14.868 19.827v85.93h14.868l1.65-36.356h4.959c8.26 0 9.911-8.252 9.911-8.252l1.641-11.56h4.96l1.65 11.56c0 0 1.65 8.269 9.91 8.269h4.959l6.618 84.271h-13.235c-8.251 0-8.251 8.252-8.251 8.252s0 4.96-4.959 4.96c-3.301 0-4.943-4.96-4.943-4.96s0-8.26-8.268-8.26h-13.219l3.301-36.356h-13.22v52.876h4.96c0 0 1.65 1.65 1.65 3.309v3.301c0 0-72.695 13.219-193.315 13.219-117.32 0-191.665-14.87-191.665-14.87v-3.309c0-1.65 1.642-3.309 1.642-3.309h4.959v-147.057c0-1.659 0-23.121-4.959-29.738-1.651-1.659-1.651-1.659-3.301-1.659-3.309 0-3.309 1.659-3.309 3.309-3.3 6.618-11.56 26.438-11.56 28.088h8.26c0 0 1.642 1.65 1.642 3.309 0 1.65-1.651 3.309-1.651 3.309h-36.355c28.081 4.959 31.388 19.827 31.388 33.046 1.65 59.478-1.651 76.005-4.96 94.182-1.65 6.618-6.601 16.52-6.601 16.52l-31.99-38.38c-0.246 0.987-0.462 2.030-0.631 3.145l-0.425-2.756h0.017l0.511-1.023-0.536-0.644-3.292-3.284 0.009-0.008-6.618-29.738-41.299-3.308v-19.828h37.998v-1.659c0 0-24.778-3.309-29.738-4.959v-4.959c-11.56-1.65-56.175-8.26-59.476-16.52-3.309-8.26-21.486-42.972-23.136-49.567-3.301-8.268-13.211-18.177-16.52-19.828-4.959-3.308-16.52 0-21.478 4.96-1.659 1.65-6.618 6.618-8.268 4.959-1.651-1.65-3.301-3.309-3.301-4.959-4.959 3.309-8.268 8.26-13.219 11.56 0 0-3.309 0-4.959-1.65-1.659-1.65 0-3.309 0-3.309l28.087-28.088c23.121-24.795 51.226-54.533 82.614-61.135-31.396-11.56-67.744-24.795-117.311-24.795-71.053 1.659-137.147 21.486-211.501 64.453 34.706-100.776 132.188-114.011 143.748-148.692 6.618-21.486 6.618-56.191 3.318-69.411-1.659-8.26-29.738-34.697-24.795-42.958 1.658-3.309 19.836-4.959 26.445-3.309 3.301 0 4.943 0 6.601 1.659 1.651 1.65 3.309 9.917 1.651 11.56 0 1.674-3.309 3.316-3.309 3.316-3.309 4.959 3.309 9.919 6.618 9.919 6.601 0 11.56 6.618 9.91 11.56-4.96 13.235-6.618 89.231-6.618 89.231 1.658 9.91 0 21.478-9.91 24.778-23.121 6.618-41.299 39.657-42.958 49.568 16.52-4.96 52.876-14.87 100.791-14.87 85.923 0 130.537 41.315 208.192 41.315 61.135 0 89.215-26.437 104.1-34.705 31.397-16.527 67.745-31.412 117.318-36.356l-1.658-33.056c0-1.659 0-3.309-1.659-3.309h-34.697v-8.275l4.943-6.618h112.367c1.659 0 4.959 6.618 4.959 6.618s1.65 1.65 1.65 3.309v4.959h-38.004c-1.651 0-1.651 1.642-1.651 3.3l-1.641 33.047c51.224 3.301 84.271 19.82 85.914 21.471 0 0.001 8.26 36.356 38.006 76.013zM1402.335 591.538l0.008-0.008-4.959-56.169h-19.82l-3.309 56.177h28.079zM838.885 376.736l0.024 0.008c-1.659-1.674-8.268-3.316-8.268-4.968 0-1.65 0-3.309 1.65-4.959-18.177 3.309-36.356 16.52-54.533 33.047 1.676 1.65 42.973 47.917 44.623 51.217 4.942-8.259 19.813-26.437 23.121-31.396 18.177-29.738 4.942-37.99-6.618-42.949zM886.817 389.955h-0.009c-3.3 8.26-13.219 42.958-14.868 49.567-3.301 8.26-13.219 29.738-16.52 31.396-1.65 0-4.959-3.309-4.959-3.309s-11.56 8.26-6.601 16.52c6.618 8.26 41.315 3.309 47.917 3.309v-67.745c-0.001-1.64 1.656-16.518-4.96-29.737zM1023.964 608.065c6.601 0 6.601 6.618 6.601 6.618s0 3.301 3.318 3.301c3.3 0 3.3-3.309 3.3-3.309s0-6.601 8.26-6.601h9.919l-6.618-74.354h-3.301c-8.26 0-9.91-8.268-9.91-8.268l-1.65-8.268h-4.959l-1.651 8.26c0 0-1.65 8.26-9.91 8.26h-3.309l-6.618 74.354 16.527 0.006zM1175.98 256.116c0-1.65 0-3.309-1.658-3.309h-21.478c-1.659 0-1.659 1.659-1.659 3.309l-1.65 33.047c6.618-1.651 23.121-1.651 28.087 0l-1.65-33.047h0.008zM1261.888 320.561c0 0-41.3-19.82-97.491-19.82-26.429 0-51.226 1.658-74.354 9.917-21.471 6.618-102.433 39.656-102.433 133.839v9.91h100.791v166.876h148.707v-165.235h99.124l14.877-11.56c-69.388-44.616-89.215-123.928-89.215-123.928h-0.006zM123.459 568.401c8.252 11.561 4.943 31.397 18.177 52.876 4.943 6.601 11.561 11.56 18.179 13.211-1.674 1.658-1.674 1.658-1.674 3.309v0.008c-39.656 1.658-57.834-18.179-57.834-18.179s13.235-14.87 16.535-19.828c8.26-11.56 6.618-23.121 6.618-31.396zM944.635 636.161c-1.642 3.309-1.642 3.309 1.659 6.618 1.659 1.642 9.917 9.902 11.576 11.56 3.301 14.87-18.177 24.78-31.396 21.478-4.943 0-16.52-1.658-23.121 0h-4.959l-1.659-3.309c0-1.658 9.917-11.56 13.219-16.527 3.309-3.309-8.26-13.219-3.301-14.868 0 0 3.301 0 3.301-1.651v-4.959l1.65-1.651c0-1.642 0-6.601 1.651-8.252 1.325-1.331 6.9-2.655 9.052-3.127l-0.794 4.762 23.121 9.928zM762.88 651.022c6.618-3.309 13.22-4.96 18.179-6.618l56.184-89.215h-1.659c-3.3 0-9.91 0-8.26-3.309 1.651-4.959 6.618 0 8.26-6.618 3.309-9.91 23.121-8.26 23.121-8.26l-6.593 18.179h-4.966l-52.877 84.271c28.088-11.576 52.877-21.486 64.436-36.356l1.659-1.658c1.65 0 1.65 0 1.65 1.65 0-1.65 0-1.65-1.65 0l0.015 0.017c-13.219 16.52-39.663 29.738-74.362 44.616l-26.437 42.957v1.659c-46.258 74.354-84.273 79.313-94.173 79.313h-1.659c-9.919 0-16.527-4.966-19.828-11.576-4.959-11.561-1.65-28.088 9.919-46.267 18.177-26.437 64.434-44.614 109.042-62.785zM650.529 753.472c1.659 4.959 6.618 6.616 13.219 6.616h1.65c18.177 0 52.86-19.836 87.565-76.012l21.478-33.047c-3.301 3.308-6.601 3.308-9.902 4.959l0.009-0.008c-42.973 18.179-87.574 36.356-104.101 59.476-9.917 14.877-14.87 29.74-9.917 38.015zM923.165 616.325l-0.508 3.054-2.793-1.396c-1.659 0-4.959-3.309-1.659-4.959l1.437-1.439 0.221 1.43 3.301 3.31zM1445.3 429.603v0.017c-41.315 0-79.313-16.535-109.068-46.273s-44.608-67.744-44.608-109.051c0-39.656 14.87-77.654 42.973-107.392l4.942-4.968 1.659-1.65c29.737-26.437 66.094-41.299 105.75-41.299 85.923 0 155.31 69.386 155.31 155.309-1.635 85.921-71.036 155.308-156.959 155.308zM1342.866 366.817l82.614-84.256c1.65-1.65-1.65-1.65-1.65-1.65l-117.32-1.659c1.659 33.041 13.235 64.436 36.356 87.565zM1308.161 264.384v3.309l117.318-1.659c1.65 0 1.65 0 1.65-1.65v-1.659l-82.614-84.271c-21.478 23.136-34.697 54.533-36.355 85.93zM1351.133 171.86l84.256 82.606c0 0 1.659 0 1.659-1.651l1.65-117.309c-31.388 1.649-62.778 14.86-87.565 36.355zM1438.698 294.122h-0.009c0 0 0-3.301-1.641-1.651l-84.273 82.614c24.795 23.121 54.533 34.697 87.572 36.356l-1.65-117.318zM1584.097 279.252l-118.968 1.651 82.614 85.923c21.469-24.796 34.697-56.177 36.355-87.574zM1539.478 376.731l-85.91-84.268v1.65l-1.65 118.97c33.036-1.642 64.416-14.867 87.56-36.352zM1450.252 133.846c1.674 1.65 1.674 118.968 1.674 118.968h-0.008c0 0 0 1.659 1.642 0l84.271-82.614c-24.795-21.477-54.534-34.696-87.58-36.355zM1547.743 178.461l-82.614 85.923 118.968 1.65c-1.658-33.047-14.877-62.785-36.355-87.572zM916.556 599.798c0-1.988 0.163-3.808 0.417-5.496l2.012 13.023c-1.281-1.467-2.429-3.634-2.429-7.526zM919.872 340.388h-0.009c-61.151 0-110.708-49.567-110.708-110.708 0-61.135 49.567-110.701 110.708-110.701 61.135 0 110.701 49.567 110.701 110.701 0.001 61.151-49.556 110.708-110.692 110.708zM833.949 267.7c3.3 9.911 9.901 18.179 16.504 26.429l51.232-52.876 3.309-3.309-0.009-0.008-77.654-1.651c0.001 11.579 3.309 21.489 6.618 31.414zM825.69 226.386l79.305-1.659-54.533-56.168c-14.862 16.52-23.122 36.356-24.772 57.827zM857.070 161.934l56.186 52.884 1.65-77.655c-21.48 1.641-41.316 9.902-57.836 24.771zM914.912 246.207h-0.008v-1.659l-56.184 54.533c16.527 14.861 36.355 23.121 57.834 23.121l-1.642-75.995zM982.65 299.081l-54.527-51.226-1.659-1.65-1.65 77.654c21.48-1.649 41.316-9.91 57.836-24.778zM924.823 137.155l1.651 76.004h-0.009v1.65l56.186-54.533c-16.504-14.861-36.357-23.121-57.828-23.121zM997.519 178.454c-1.651-3.301-4.959-6.601-8.26-9.91l-52.876 56.177 77.654 1.65c-1.65-16.521-6.618-33.048-16.518-47.917zM1014.038 234.638l-77.654 1.65 54.533 56.186c14.861-16.52 23.119-36.356 23.119-57.828v-0.008zM923.165 621.292c0 0-0.329 0.067-0.858 0.182l0.348-2.094 0.508 0.255v1.658zM921.514 609.715l-1.871 1.87-0.658-4.262c0.893 1.025 1.85 1.711 2.529 2.392z" />
<glyph unicode="&#xe901;" glyph-name="2up" horiz-adv-x="791" d="M351.385 608.777h-141.883v-155.397h162.153v155.397h-20.269zM561.502 608.777h-141.883v-155.397h162.154v155.397h-20.271zM351.385 417.019h-141.883v-155.397h162.153v155.397h-20.269zM561.502 417.019h-141.883v-155.397h162.154v155.397h-20.271z" />
<glyph unicode="&#xe902;" glyph-name="4up" horiz-adv-x="791" d="M141.883 608.777h-141.883v-155.397h162.153v155.397h-20.269zM352.001 608.777h-141.883v-155.397h162.154v155.397h-20.271zM141.883 417.019h-141.883v-155.397h162.153v155.397h-20.269zM352.001 417.019h-141.883v-155.397h162.154v155.397h-20.271zM561.502 608.777h-141.883v-155.397h162.153v155.397h-20.269zM561.502 417.019h-141.883v-155.397h162.153v155.397h-20.269zM771.003 608.777h-141.883v-155.397h162.153v155.397h-20.269zM771.003 417.019h-141.883v-155.397h162.153v155.397h-20.269z" />
<glyph unicode="&#xe903;" glyph-name="user" d="M888.024-17.455h-709.333v17.455c0 3.305 0.143 9.309 0.715 17.501 0.811 13.545 2.337 28.625 4.721 44.87 6.724 46.359 18.931 92.765 37.958 136.239 55.125 126.092 155.886 202.845 311.248 202.845s256.171-76.753 311.296-202.845c19.027-43.473 31.235-89.879 37.958-136.239 2.384-16.244 3.91-31.325 4.721-44.87 0.525-8.192 0.715-14.196 0.715-17.501v-17.455zM271.059 680.727c0 128.512 106.77 232.727 238.479 232.727 131.662 0 238.384-104.215 238.384-232.727s-106.722-232.727-238.384-232.727c-131.709 0-238.479 104.215-238.479 232.727v0zM937.904 20.201c-0.954 15.36-2.623 31.604-5.102 48.361-7.582 52.177-21.22 101.888-41.153 147.409-50.071 114.409-134.094 189.44-247.539 218.345 90.127 47.011 151.547 139.683 151.547 246.412 0 154.205-128.133 279.273-286.118 279.273-158.032 0-286.165-125.068-286.165-279.273 0-114.083 70.194-212.061 170.669-255.395-98.901-33.699-173.292-104.913-218.975-209.361-19.933-45.521-33.571-95.232-41.153-147.409-2.48-16.756-4.149-33.001-5.102-48.361-0.525-8.192-0.811-15.313-0.811-20.201v-64h810.667v64c0 4.934-0.238 12.009-0.763 20.201v0z" />
<glyph unicode="&#xe904;" glyph-name="bag" d="M614.4 755.2c0 115.2-34.118 153.6-102.4 153.6s-102.4-38.4-102.4-153.6h204.8zM358.4 755.2c0 138.612 49.617 204.8 153.6 204.8s153.6-66.188 153.6-204.8h252.556c25.46 0 47.616-21.085 49.478-46.406l56.367-772.794h-1024l56.367 772.794c1.862 25.647 23.971 46.406 49.478 46.406h252.556zM921.228 705.443c-0.093 1.21-2.234 3.212-3.072 3.212h-812.311c-1.024 0-2.979-1.862-3.072-3.212l-52.736-722.897h923.881l-52.689 722.897z" />
<glyph unicode="&#xe905;" glyph-name="like" horiz-adv-x="1078" d="M543.259-39.047l-17.57 16.707 18.594 19.51-20.803-17.408c-63.919 60.2-276.857 261.928-332.153 328.111l-18.324 21.504c-62.518 72.866-156.995 182.973-156.995 349.831 0 125.090 68.554 258.749 260.904 258.749 157.965 0 235.197-75.722 269.743-147.187 34.816 69.093 106.065 147.187 241.88 147.187 228.783 0 266.941-168.205 279.498-223.448 17.462-77.285-15.683-226.951-129.886-373.113-108.382-138.563-365.568-355.705-376.455-364.921l-18.432-15.522zM276.911 884.062c-186.853 0-207.010-143.252-207.010-204.854 0-146.917 83.213-243.874 144.007-314.745l18.809-22.097c51.2-61.171 251.796-251.688 312.589-309.032 61.494 52.817 261.767 227.867 350.477 341.208 110.376 141.312 132.096 273.624 119.808 328.057-19.133 84.453-62.302 181.464-226.951 181.464-176.775 0-217.304-166.211-217.304-191.326h-53.895c-0.054 1.94-2.803 191.326-240.532 191.326z" />
<glyph unicode="&#xe906;" glyph-name="burger" d="M128 149.333c0 23.564 18.984 42.667 42.385 42.667h683.23c23.409 0 42.385-18.938 42.385-42.667 0-23.564-18.984-42.667-42.385-42.667h-683.23c-23.409 0-42.385 18.938-42.385 42.667zM128 448c0 23.564 18.984 42.667 42.385 42.667h683.23c23.409 0 42.385-18.938 42.385-42.667 0-23.564-18.984-42.667-42.385-42.667h-683.23c-23.409 0-42.385 18.938-42.385 42.667zM128 746.667c0 23.564 18.984 42.667 42.385 42.667h683.23c23.409 0 42.385-18.938 42.385-42.667 0-23.564-18.984-42.667-42.385-42.667h-683.23c-23.409 0-42.385 18.938-42.385 42.667z" />
<glyph unicode="&#xe907;" glyph-name="pin" d="M490.667-16.725c-58.324-2.259-320 394.661-320 571.392s143.269 320 320 320c176.731 0 320-143.269 320-320s-261.676-569.134-320-571.392zM490.667 41.12c50.547 1.946 277.333 362.914 277.333 515.18s-124.166 275.701-277.333 275.701c-153.167 0-277.333-123.435-277.333-275.701s226.786-517.125 277.333-515.18z" />
<glyph unicode="&#xe908;" glyph-name="rightarrow" horiz-adv-x="923" d="M253.707 922.097l461.362-461.362-461.362-461.359-57.060 57.876 403.487 403.487-403.487 403.487 57.060 57.873z" />
<glyph unicode="&#xe909;" glyph-name="1up" horiz-adv-x="791" d="M543.409 636.818h-344.801v-377.636h394.055v377.636h-49.254z" />
<glyph unicode="&#xe90a;" glyph-name="arrow-down" d="M891.802 647.219c13.926 13.722 36.301 13.722 50.125 0s13.875-35.891 0-49.613l-404.89-400.896c-13.824-13.722-36.198-13.722-50.125 0l-404.89 400.896c-13.824 13.722-13.824 35.891 0 49.613 13.875 13.722 36.301 13.722 50.125 0l379.853-365.619 379.802 365.619z" />
<glyph unicode="&#xe90b;" glyph-name="leftarrow" horiz-adv-x="923" d="M628.971-17.437l-461.362 461.362 461.362 461.359 57.060-57.876-403.487-403.487 403.487-403.487-57.060-57.873z" />
<glyph unicode="&#xe90c;" glyph-name="arrow-up" d="M132.198 248.781c-13.926-13.722-36.301-13.722-50.125 0s-13.875 35.891 0 49.613l404.89 400.896c13.824 13.722 36.198 13.722 50.125 0l404.89-400.896c13.824-13.722 13.824-35.891 0-49.613-13.875-13.722-36.301-13.722-50.074 0l-379.904 365.619-379.802-365.619z" />
<glyph unicode="&#xe90d;" glyph-name="close" horiz-adv-x="791" d="M108.835 103.843l286.803 286.803 286.8-286.803 57.352 57.35-286.805 286.808 286.805 286.8-57.352 57.352-286.8-286.804-286.803 286.808-57.352-57.352 286.804-286.8-286.805-286.808z" />
<glyph unicode="&#xe90e;" glyph-name="wechat" d="M293.957 648.823c0 13.423-4.093 24.227-12.277 32.411s-18.989 12.277-32.411 12.277c-14.078 0-26.519-4.174-37.323-12.523s-16.206-19.070-16.206-32.166c0-12.769 5.402-23.327 16.206-31.675s23.245-12.523 37.323-12.523c13.423 0 24.227 4.011 32.411 12.031 8.185 8.022 12.277 18.745 12.277 32.167zM658.835 399.842c0 9.167-4.174 17.351-12.522 24.554s-19.070 10.804-32.166 10.804c-8.84 0-16.942-3.683-24.309-11.050s-11.049-15.469-11.049-24.309c0-9.167 3.683-17.434 11.049-24.799 7.367-7.367 15.469-11.050 24.309-11.050 13.096 0 23.818 3.601 32.166 10.804s12.522 15.551 12.522 25.045zM542.939 648.823c0 13.423-4.011 24.227-12.032 32.411s-18.743 12.277-32.166 12.277c-14.078 0-26.519-4.174-37.322-12.523s-16.206-19.070-16.206-32.166c0-12.769 5.402-23.327 16.206-31.675s23.245-12.523 37.322-12.523c13.423 0 24.146 4.011 32.166 12.031 8.021 8.022 12.032 18.745 12.032 32.167zM854.779 399.842c0 9.167-4.256 17.351-12.769 24.554s-19.153 10.804-31.921 10.804c-8.839 0-16.942-3.683-24.309-11.050s-11.050-15.469-11.050-24.309c0-9.167 3.683-17.434 11.050-24.799 7.366-7.367 15.469-11.050 24.309-11.050 12.769 0 23.409 3.601 31.921 10.804s12.769 15.551 12.769 25.045zM724.15 594.803c-10.149 1.31-21.607 1.965-34.376 1.965-55.329 0-106.238-12.605-152.728-37.814s-83.075-59.339-109.758-102.392c-26.682-43.052-40.023-90.114-40.023-141.187 0-25.536 3.765-50.418 11.295-74.645-11.458-0.982-22.59-1.473-33.394-1.473-8.512 0-16.697 0.246-24.554 0.737s-16.861 1.555-27.010 3.192-17.434 2.783-21.853 3.438c-4.42 0.655-13.342 2.373-26.764 5.156s-21.608 4.502-24.554 5.157l-124.245-62.369 35.358 107.057c-94.945 66.461-142.417 146.671-142.417 240.633 0 55.33 15.961 106.238 47.881 152.728s75.136 83.075 129.647 109.758c54.511 26.682 114.014 40.023 178.51 40.023 57.621 0 112.050-10.804 163.286-32.411s94.125-51.482 128.665-89.623c34.539-38.141 56.885-80.784 67.034-127.929zM1014.873 319.303c0-38.305-11.213-74.891-33.639-109.758s-52.792-66.542-91.097-95.025l27.010-88.887-97.726 53.529c-49.109-12.113-84.795-18.17-107.057-18.17-55.33 0-106.239 11.541-152.728 34.622s-83.076 54.429-109.758 94.043-40.024 82.83-40.024 129.647c0 46.817 13.342 90.033 40.024 129.647s63.268 70.962 109.758 94.043c46.489 23.081 97.398 34.622 152.728 34.622 52.71 0 102.309-11.541 148.799-34.622s83.73-54.511 111.723-94.289c27.992-39.779 41.988-82.912 41.988-129.402z" />
<glyph unicode="&#xe90f;" glyph-name="google-plus" d="M635.754 427.818c0-60.213-12.593-113.839-37.778-160.88s-61.081-83.805-107.687-110.293-100.015-39.731-160.228-39.731c-43.133 0-84.384 8.395-123.754 25.185s-73.239 39.37-101.608 67.739c-28.369 28.369-50.949 62.239-67.739 101.608s-25.186 80.622-25.186 123.754 8.395 84.384 25.185 123.754 39.37 73.239 67.739 101.608c28.369 28.369 62.238 50.949 101.608 67.739s80.622 25.185 123.754 25.185c82.792 0 153.859-27.79 213.203-83.371l-86.41-82.937c-33.869 32.711-76.134 49.067-126.793 49.067-35.606 0-68.535-8.974-98.786-26.922s-54.206-42.337-71.864-73.167c-17.659-30.83-26.488-64.482-26.488-100.957s8.829-70.127 26.488-100.957c17.658-30.83 41.613-55.219 71.864-73.166s63.179-26.922 98.786-26.922c24.027 0 46.1 3.329 66.219 9.987s36.691 14.981 49.718 24.967 24.389 21.349 34.086 34.086 16.79 24.75 21.277 36.041c4.487 11.29 7.599 22.001 9.335 32.132h-180.636v109.425h300.482c3.474-18.238 5.211-35.896 5.211-52.975zM1012.226 480.794v-91.187h-90.753v-90.753h-91.187v90.753h-90.753v91.187h90.753v90.752h91.187v-90.753h90.753z" />
<glyph unicode="&#xe910;" glyph-name="comment" d="M1024 435.2q0-99.429-68.571-183.714t-186.286-133.143-257.143-48.857q-40 0-82.857 4.571-113.143-100-262.857-138.286-28-8-65.143-12.571-9.714-1.143-17.429 5.143t-10 16.571v0.571q-1.714 2.286-0.286 6.857t1.143 5.714 2.571 5.429l3.429 5.143 4 4.857 4.571 5.143q4 4.571 17.714 19.714t19.714 21.714 17.714 22.571 18.571 29.143 15.429 33.714 14.857 43.429q-89.714 50.857-141.429 125.714t-51.714 160.571q0 74.286 40.571 142t109.143 116.857 163.429 78 198.857 28.857q139.429 0 257.143-48.857t186.286-133.143 68.571-183.714z" />
<glyph unicode="&#xe911;" glyph-name="facebook" d="M767.429 940.343v-150.857h-89.714q-49.143 0-66.286-20.571t-17.143-61.714v-108h167.429l-22.286-169.143h-145.143v-433.714h-174.857v433.714h-145.714v169.143h145.714v124.571q0 106.286 59.429 164.857t158.286 58.571q84 0 130.286-6.857z" />
<glyph unicode="&#xe912;" glyph-name="instagram" d="M512 854.912c136.704 0 152.917-0.512 206.933-2.987 138.752-6.315 203.563-72.149 209.877-209.877 2.475-53.973 2.944-70.187 2.944-206.891 0-136.747-0.512-152.917-2.944-206.891-6.357-137.6-70.997-203.563-209.877-209.877-54.016-2.475-70.144-2.987-206.933-2.987-136.704 0-152.917 0.512-206.891 2.987-139.093 6.357-203.563 72.491-209.877 209.92-2.475 53.973-2.987 70.144-2.987 206.891 0 136.704 0.555 152.875 2.987 206.891 6.357 137.685 70.997 203.563 209.877 209.877 54.016 2.432 70.187 2.944 206.891 2.944zM512 947.2c-139.051 0-156.459-0.597-211.072-3.072-185.941-8.533-289.28-111.701-297.813-297.813-2.517-54.656-3.115-72.064-3.115-211.115s0.597-156.501 3.072-211.115c8.533-185.941 111.701-289.28 297.813-297.813 54.656-2.475 72.064-3.072 211.115-3.072s156.501 0.597 211.115 3.072c185.771 8.533 289.365 111.701 297.771 297.813 2.517 54.613 3.115 72.064 3.115 211.115s-0.597 156.459-3.072 211.072c-8.363 185.771-111.659 289.28-297.771 297.813-54.656 2.517-72.107 3.115-211.157 3.115zM512 698.112c-145.195 0-262.912-117.717-262.912-262.912s117.717-262.955 262.912-262.955 262.912 117.717 262.912 262.955c0 145.195-117.717 262.912-262.912 262.912zM512 264.533c-94.251 0-170.667 76.373-170.667 170.667 0 94.251 76.416 170.667 170.667 170.667s170.667-76.416 170.667-170.667c0-94.293-76.416-170.667-170.667-170.667zM785.323 769.92c-33.963 0-61.483-27.52-61.483-61.44s27.52-61.44 61.483-61.44c33.92 0 61.397 27.52 61.397 61.44s-27.477 61.44-61.397 61.44z" />
<glyph unicode="&#xe913;" glyph-name="pinterest" d="M950.857 435.2q0-119.429-58.857-220.286t-159.714-159.714-220.286-58.857q-63.429 0-124.571 18.286 33.714 53.143 44.571 93.714 5.143 19.429 30.857 120.571 11.429-22.286 41.714-38.571t65.143-16.286q69.143 0 123.429 39.143t84 107.714 29.714 154.286q0 65.143-34 122.286t-98.571 93.143-145.714 36q-60 0-112-16.571t-88.286-44-62.286-63.143-38.286-74-12.286-76.571q0-59.429 22.857-104.571t66.857-63.429q17.143-6.857 21.714 11.429 1.143 4 4.571 17.714t4.571 17.143q3.429 13.143-6.286 24.571-29.143 34.857-29.143 86.286 0 86.286 59.714 148.286t156.286 62q86.286 0 134.571-46.857t48.286-121.714q0-97.143-39.143-165.143t-100.286-68q-34.857 0-56 24.857t-13.143 59.714q4.571 20 15.143 53.429t17.143 58.857 6.571 43.143q0 28.571-15.429 47.429t-44 18.857q-35.429 0-60-32.571t-24.571-81.143q0-41.714 14.286-69.714l-56.571-238.857q-9.714-40-7.429-101.143-117.714 52-190.286 160.571t-72.571 241.714q0 119.429 58.857 220.286t159.714 159.714 220.286 58.857 220.286-58.857 159.714-159.714 58.857-220.286z" />
<glyph unicode="&#xe914;" glyph-name="snapchat" d="M521.143 874.057q76.571 0.571 137.429-39.143t93.429-110q15.429-33.143 15.429-102.286 0-26.857-5.143-109.143 8-4 16-4 10.286 0 29.143 7.714t29.143 7.714q16.571 0 32-10.286t15.429-26.286q0-18.286-18-30.857t-39.429-18-39.429-16.571-18-27.143q0-8.571 6.857-24.571 21.143-46.857 58.571-85.714t82.571-57.714q16-6.857 45.714-13.143 16-3.429 16-20 0-40-125.143-58.857-4-6.286-6.286-22.286t-8-26.571-18.857-10.571q-11.429 0-35.429 3.714t-36.571 3.714q-21.143 0-35.429-2.857-18.286-2.857-36-12.857t-33.143-21.714-33.143-23.143-43.429-19.143-56.571-7.714q-29.714 0-55.143 7.714t-42.857 19.143-32.857 23.143-33.143 21.714-35.429 12.857q-14.857 2.857-36 2.857-13.714 0-37.429-4.286t-33.429-4.286q-14.286 0-20 10.571t-8 27.143-6.286 22.857q-125.143 18.857-125.143 58.857 0 16.571 16 20 29.714 6.286 45.714 13.143 44.571 18.286 82.571 57.714t58.571 85.714q6.857 16 6.857 24.571 0 16-18 27.143t-39.714 16.857-39.714 18-18 30q0 15.429 14.857 26t31.429 10.571q8.571 0 27.429-7.429t30.286-7.429q10.286 0 18.286 4-5.143 81.143-5.143 108.571 0 69.714 15.429 102.857 36.571 78.286 98.286 113.143t150.857 36z" />
<glyph unicode="&#xe915;" glyph-name="twitter" d="M962.286 714.057q-38.286-56-92.571-95.429 0.571-8 0.571-24 0-74.286-21.714-148.286t-66-142-105.429-120.286-147.429-83.429-184.571-31.143q-154.857 0-283.429 82.857 20-2.286 44.571-2.286 128.571 0 229.143 78.857-60 1.143-107.429 36.857t-65.143 91.143q18.857-2.857 34.857-2.857 24.571 0 48.571 6.286-64 13.143-106 63.714t-42 117.429v2.286q38.857-21.714 83.429-23.429-37.714 25.143-60 65.714t-22.286 88q0 50.286 25.143 93.143 69.143-85.143 168.286-136.286t212.286-56.857q-4.571 21.714-4.571 42.286 0 76.571 54 130.571t130.571 54q80 0 134.857-58.286 62.286 12 117.143 44.571-21.143-65.714-81.143-101.714 53.143 5.714 106.286 28.571z" />
<glyph unicode="&#xe916;" glyph-name="weibo" d="M385.714 213.486q12 19.429 6.286 39.429t-25.714 28.571q-19.429 8-41.714 0.571t-34.286-26.286q-12.571-19.429-7.429-39.143t24.571-28.857 42.571-1.429 35.714 27.143zM439.429 282.629q4.571 7.429 2 15.143t-10 10.571q-8 2.857-16.286-0.286t-12.286-10.571q-9.714-17.714 7.429-25.714 8-2.857 16.571 0.286t12.571 10.571zM538.857 221.486q-25.714-58.286-90.286-85.714t-128-6.857q-61.143 19.429-84.286 72.286t3.714 107.143q26.857 53.143 86.571 79.429t120.286 10.857q63.429-16.571 90.571-68.286t1.429-108.857zM717.143 312.914q-5.143 54.857-50.857 97.143t-119.143 62.286-156.857 12q-127.429-13.143-211.143-80.857t-75.714-151.143q5.143-54.857 50.857-97.143t119.143-62.286 156.857-12q127.429 13.143 211.143 80.857t75.714 151.143zM893.143 310.629q0-38.857-21.143-79.714t-62.286-78.286-96.286-67.143-129.143-47.429-154.571-17.714-157.143 19.143-137.429 53.143-98 86.286-37.143 114q0 65.714 39.714 140t112.857 147.429q96.571 96.571 195.143 134.857t140.857-4q37.143-36.571 11.429-119.429-2.286-8-0.571-11.429t5.714-4 8.286 0.286 7.714 2l3.429 1.143q79.429 33.714 140.571 33.714t87.429-34.857q25.714-36 0-101.714-1.143-7.429-2.571-11.429t2.571-7.143 6.857-4.286 9.714-3.429q32.571-10.286 58.857-26.857t45.714-46.571 19.429-66.571zM850.857 667.2q24-26.857 31.143-62t-3.714-67.143q-4.571-13.143-16.857-19.429t-25.429-2.286q-13.143 4.571-19.429 16.857t-2.286 25.429q11.429 36-13.714 63.429t-61.143 20q-13.714-2.857-25.714 4.571t-14.286 21.143q-2.857 13.714 4.571 25.429t21.143 14.571q34.286 7.429 68-3.143t57.714-37.429zM954.286 760.343q49.714-54.857 64.286-127.143t-7.714-138q-5.143-15.429-19.429-22.857t-29.714-2.286-22.857 19.429-2.857 29.714q16 46.857 5.714 98.286t-45.714 90.286q-35.429 39.429-84.571 54.571t-98.857 4.857q-16-3.429-29.714 5.429t-17.143 24.857 5.429 29.429 24.857 16.857q70.286 14.857 139.429-6.571t118.857-76.857z" />
<glyph unicode="&#xe917;" glyph-name="youtube-play" d="M731.429 435.2q0 21.143-17.143 30.857l-292.571 182.857q-17.714 11.429-37.143 1.143-18.857-10.286-18.857-32v-365.714q0-21.714 18.857-32 9.143-4.571 17.714-4.571 11.429 0 19.429 5.714l292.571 182.857q17.143 9.714 17.143 30.857zM1024 435.2q0-54.857-0.571-85.714t-4.857-78-12.857-84.286q-9.143-41.714-39.429-70.286t-70.857-33.143q-126.857-14.286-383.429-14.286t-383.429 14.286q-40.571 4.571-71.143 33.143t-39.714 70.286q-8 37.143-12.286 84.286t-4.857 78-0.571 85.714 0.571 85.714 4.857 78 12.857 84.286q9.143 41.714 39.429 70.286t70.857 33.143q126.857 14.286 383.429 14.286t383.429-14.286q40.571-4.571 71.143-33.143t39.714-70.286q8-37.143 12.286-84.286t4.857-78 0.571-85.714z" />
<glyph unicode="&#xe918;" glyph-name="share" horiz-adv-x="919" d="M753.89 266.583c91.288 0 165.291-74.003 165.291-165.291s-74.004-165.291-165.291-165.291c-91.288 0-165.291 74.004-165.291 165.291s74.004 165.291 165.291 165.291zM753.89 960c91.288 0 165.291-74.003 165.291-165.291s-74.004-165.291-165.291-165.291c-91.288 0-165.291 74.004-165.291 165.291s74.004 165.291 165.291 165.291zM165.291 613.291c91.288 0 165.291-74.003 165.291-165.291s-74.004-165.291-165.291-165.291c-91.288 0-165.291 74.004-165.291 165.291s74.004 165.291 165.291 165.291zM650.879 115.545l-525.215 303.233 32.85 56.898 525.215-303.233-32.85-56.898zM655.689 774.551l-525.215-303.233 32.85-56.898 525.215 303.233-32.85 56.898z" />
<glyph unicode="&#xe919;" glyph-name="full-heart" horiz-adv-x="1078" d="M544.337-2.883s264.731 222.909 372.574 360.825c107.789 137.971 140.827 280.091 124.874 350.585-16.007 70.548-55.35 202.483-253.197 202.483-197.901 0-244.251-184.967-244.251-218.274 0 32.552-25.708 218.274-267.426 218.274-191.326 0-233.957-139.318-233.957-231.801 0-173.164 107.035-279.929 169.068-354.088 61.979-74.105 332.315-327.949 332.315-327.949z" />
<glyph unicode="&#xe91a;" glyph-name="search" d="M514.176 235.947c-186.624 0-337.877 151.296-337.877 337.877 0 186.624 151.253 337.92 337.877 337.92s337.877-151.296 337.877-337.92c0-186.581-151.253-337.877-337.877-337.877zM906.283-24.107l-159.104 275.584c-2.005 3.499-4.736 6.4-7.936 8.576 97.579 70.101 161.109 184.533 161.109 313.771 0 213.291-172.885 386.176-386.176 386.176s-386.176-172.885-386.176-386.176c0-213.248 172.885-386.133 386.176-386.133 66.56 0 129.152 16.853 183.851 46.464 0 0.043-0.043 0.085-0.043 0.128l0.085-0.128h-0.043c0.469-3.157 1.493-6.272 3.2-9.216l159.104-275.584c7.168-12.416 23.637-17.195 36.352-9.856 12.331 7.083 17.024 23.595 9.6 36.395z" />
<glyph unicode="&#xe91b;" glyph-name="play-video" d="M512-64c-282.77 0-512 229.23-512 512s229.23 512 512 512c282.77 0 512-229.23 512-512s-229.23-512-512-512zM512-21.333c259.206 0 469.333 210.128 469.333 469.333s-210.128 469.333-469.333 469.333c-259.206 0-469.333-210.128-469.333-469.333s210.128-469.333 469.333-469.333zM682.667 437.333l-256-202.667v405.333z" />
<glyph unicode="&#xe91c;" glyph-name="mute-sound" d="M284.123 582.485h-220.296c-23.434 0-42.494-19.158-42.494-42.792v-213.083c0-23.654 19.025-42.792 42.494-42.792h235.013c0.057 0 0.114 0 0.172 0l283.245-258.407c8.715-7.951 15.704-4.731 15.667 7.14l-2.488 809.278c-0.037 11.922-7.194 15.062-15.986 7.129l-295.326-266.474zM825.5 439.415l-118.485-118.485c-4.042-4.042-4.040-10.794 0.126-14.959 4.044-4.044 10.863-4.222 14.959-0.126l118.485 118.485 118.485-118.485c4.042-4.042 10.794-4.040 14.959 0.126 4.044 4.044 4.222 10.863 0.126 14.959l-118.485 118.485 118.485 118.485c4.042 4.042 4.040 10.794-0.126 14.959-4.044 4.044-10.863 4.222-14.959 0.126l-118.485-118.485-118.485 118.485c-4.042 4.042-10.794 4.040-14.959-0.126-4.044-4.044-4.222-10.863-0.126-14.959l118.485-118.485z" />
<glyph unicode="&#xe91d;" glyph-name="sound-on" d="M284.117 576h-220.288c-23.424 0-42.496-19.157-42.496-42.795v-213.077c0-23.68 19.029-42.795 42.496-42.795h235.029c0.043 0 0.107 0 0.171 0l283.243-258.411c8.704-7.936 15.701-4.715 15.659 7.147l-2.496 809.28c-0.043 11.925-7.189 15.061-15.979 7.125l-295.339-266.475zM746.645 212.757c-4.928 0-9.344 3.435-10.411 8.469-1.216 5.76 2.475 11.413 8.256 12.629 38.144 8.021 142.848 68.608 142.848 192.811-6.315 140.757-111.659 184.043-143.808 193.941-5.632 1.749-8.789 7.701-7.040 13.333 1.707 5.632 7.68 8.789 13.333 7.061 35.499-10.944 151.893-58.709 158.827-213.867 0.021-135.232-109.739-203.648-159.787-214.165-0.747-0.149-1.493-0.213-2.219-0.213zM789.333 108.437c-4.139 0-8.107 2.432-9.835 6.528-2.283 5.419 0.256 11.691 5.696 13.973 88.725 37.461 196.715 119.616 207.232 298.347-3.264 229.077-185.771 298.944-206.592 306.155-5.568 1.941-8.491 8-6.592 13.568 1.963 5.589 7.979 8.448 13.589 6.592 22.229-7.723 217.429-82.389 220.885-326.784-11.776-200.448-143.040-284.928-220.245-317.547-1.344-0.555-2.752-0.832-4.139-0.832zM703.979 311.701c-4.949 0-9.408 3.477-10.432 8.533-1.173 5.781 2.56 11.413 8.341 12.587 30.784 6.229 76.587 36.373 76.587 93.824 0 58.475-45.653 87.872-76.331 93.355-5.781 1.045-9.664 6.592-8.619 12.373 1.045 5.803 6.699 9.685 12.373 8.619 37.76-6.741 93.909-42.773 93.909-114.347 0-70.251-56.021-107.115-93.675-114.752-0.747-0.128-1.451-0.192-2.155-0.192z" />
<glyph unicode="&#xe91e;" glyph-name="plus" d="M482.323 960h59.35v-1024h-59.35v1024zM0 477.674h1023.997v-59.35h-1023.997v59.35z" />
<glyph unicode="&#xe91f;" glyph-name="start-again" horiz-adv-x="915" d="M506.9 394.964c0-28.164-22.832-50.996-50.996-50.996s-50.996 22.832-50.996 50.996c0 28.164 22.832 50.996 50.996 50.996s50.996-22.832 50.996-50.996zM818.486 676.462l-36.717-35.697c51.219-67.448 82.051-152.818 82.051-245.39 0-225.315-182.654-407.968-407.968-407.968s-407.968 182.654-407.968 407.968c0 218.876 172.364 397.494 388.76 407.524l0.901 0.033-68.335-67.825c-4.075-4.502-6.569-10.501-6.569-17.084s2.494-12.582 6.589-17.105l-0.019 0.022c4.539-4.63 10.859-7.5 17.849-7.5s13.309 2.87 17.845 7.496l0.004 0.004 110.661 107.092c4.392 4.647 7.091 10.932 7.091 17.849s-2.7 13.202-7.103 17.861l0.012-0.012-109.131 108.622c-4.539 4.63-10.859 7.5-17.849 7.5s-13.309-2.87-17.845-7.496l-0.004-0.004c-4.507-4.595-7.289-10.897-7.289-17.849s2.782-13.253 7.293-17.853l-0.004 0.004 63.235-62.725c-225.967-11.544-408.086-184.879-433.271-405.859l-0.195-2.109v-101.992c23.805-233.239 219.192-413.684 456.725-413.684 253.479 0 458.964 205.485 458.964 458.964 0 108.42-37.594 208.059-100.457 286.594l0.704-0.91z" />
<glyph unicode="&#xe920;" glyph-name="tooltip" horiz-adv-x="1018" d="M509.156 957.724c-0.845 0.005-1.844 0.008-2.844 0.008-282.77 0-512-229.23-512-512s229.23-512 512-512c282.767 0 511.995 229.226 512 511.992v0.001c0 0.002 0 0.005 0 0.008 0 281.77-227.612 510.378-509.002 511.991l-0.154 0.001zM509.156-9.387c-0.845-0.006-1.844-0.009-2.844-0.009-251.351 0-455.111 203.76-455.111 455.111s203.76 455.111 455.111 455.111c251.348 0 455.106-203.755 455.111-455.102v0c0-0.003 0-0.006 0-0.009 0-250.351-202.142-453.489-452.113-455.101l-0.154-0.001zM502.898 626.062c-0.621 0.010-1.354 0.016-2.088 0.016-26.427 0-51.071-7.636-71.846-20.821l0.547 0.325 12.516-32.427c14.39 9.972 32.219 15.929 51.441 15.929 0.115 0 0.231 0 0.346-0.001h-0.018c32.427 0 48.924-18.204 48.924-43.804-3.467-27.857-16.548-52.151-35.763-69.903l-0.077-0.070c-20.144-21.093-32.541-49.735-32.541-81.273 0-1.828 0.042-3.647 0.124-5.455l-0.009 0.257v-13.084h39.822v13.084c-0.052 1.211-0.081 2.631-0.081 4.059 0 27.681 11.107 52.768 29.107 71.047l-0.013-0.013c24.359 22.664 40.531 53.841 43.764 88.769l0.041 0.547c-1.31 40.76-34.667 73.305-75.625 73.305-3.020 0-5.998-0.177-8.925-0.521l0.355 0.034zM509.156 331.947c-17.752 0-32.142-14.391-32.142-32.142s14.391-32.142 32.142-32.142v0c17.595 0 31.858 14.263 31.858 31.858s-14.263 31.858-31.858 31.858v0z" />
<glyph unicode="&#xe921;" glyph-name="radio-enabled" d="M830.976 559.104c11.426-33.498 18.022-72.089 18.022-112.219 0-19.305-1.526-38.253-4.465-56.731l0.267 2.039c-26.075-170.182-171.436-299.016-346.888-299.016-18.883 0-37.417 1.492-55.491 4.365l1.995-0.261c-74.025 11.989-138.601 45.909-188.474 94.777l0.058-0.057c-56.903 57.421-94.524 134.035-102.297 219.276l-0.103 1.396c-1.831 13.607-2.876 29.338-2.876 45.312s1.045 31.704 3.071 47.125l-0.195-1.813c26.075 170.182 171.436 299.016 346.888 299.016 18.883 0 37.417-1.492 55.491-4.365l-1.995 0.261c82.32-14.059 153.157-55.425 204.446-114.273l0.354-0.415 36.352 40.96c-73.492 81.396-179.39 132.33-297.185 132.33-131.506 0-248.185-63.481-321.065-161.472l-0.758-1.066c-37.449-51.198-63.581-112.976-73.459-180.044l-0.269-2.228c-3.109-19.112-4.885-41.142-4.885-63.587 0-13.666 0.659-27.179 1.946-40.507l-0.132 1.695c2.564-25.826 7.078-49.316 13.498-72.007l-0.698 2.887c0-7.68 9.216-26.112 17.408-46.080 10.118-25.020 19.738-45.231 30.35-64.827l-1.678 3.387c18.256-29.469 38.727-54.986 61.896-77.769l0.056-0.055c57.043-57.048 131.243-96.941 214.195-111.276l2.381-0.34c18.246-2.916 39.282-4.582 60.708-4.582 202.421 0 370.113 148.693 399.809 342.812l0.283 2.25c3.062 18.814 4.811 40.5 4.811 62.595 0 57.255-11.748 111.767-32.964 161.256l1.017-2.667zM397.312 461.824c-4.148 4.687-10.179 7.627-16.896 7.627s-12.748-2.94-16.875-7.603l-0.021-0.024c-4.3-4.712-6.934-11.008-6.934-17.92s2.634-13.208 6.952-17.941l-0.019 0.021 111.616-123.904c4.248-4.88 10.47-7.947 17.408-7.947s13.16 3.067 17.384 7.919l0.024 0.028 455.168 460.8c4.3 4.712 6.934 11.008 6.934 17.92s-2.634 13.208-6.952 17.941l0.019-0.021c-4.22 4.543-10.227 7.376-16.896 7.376s-12.676-2.833-16.883-7.361l-0.013-0.014-439.808-441.856z" />
<glyph unicode="&#xe922;" glyph-name="radio-disabled" d="M512 857.6c-226.216 0-409.6-183.384-409.6-409.6s183.384-409.6 409.6-409.6c226.216 0 409.6 183.384 409.6 409.6v0c0 226.216-183.384 409.6-409.6 409.6v0zM512 89.6c-197.939 0-358.4 160.461-358.4 358.4s160.461 358.4 358.4 358.4c197.939 0 358.4-160.461 358.4-358.4v0c0-197.939-160.461-358.4-358.4-358.4v0z" />
<glyph unicode="&#xe923;" glyph-name="near-me" d="M881.804 401.455c-20.852-168.448-153.507-301.94-320.884-322.932v43.66h-92.439v-43.66c-167.377 20.992-300.032 154.484-320.931 322.932h37.376v93.091h-37.376c20.852 168.448 153.507 301.94 320.884 322.932v-43.66h92.439v43.66c167.377-20.992 300.032-154.484 320.884-322.932h-43.66v-93.091h43.66zM928.349 494.545c-21.318 194.188-174.545 348.346-367.43 369.804v95.651h-92.439v-95.651c-192.931-21.457-346.112-175.616-367.476-369.804h-101.004v-93.091h101.004c21.364-194.188 174.545-348.346 367.476-369.804v-95.651h92.439v95.651c192.931 21.457 346.112 175.616 367.43 369.804h94.767v93.091h-94.767z" />
<glyph unicode="&#xe924;" glyph-name="new-tab" d="M0-32v768h768v-768h-768zM59.072 27.072h649.856v649.856h-649.856v-649.856zM192 928v-177.28h59.072v118.272h649.856v-649.856h-118.208v-59.072h177.28v767.936z" />
<glyph unicode="&#xe925;" glyph-name="info" d="M512 960c-282.764 0-512-229.236-512-512s229.236-512 512-512 512 229.236 512 512-229.236 512-512 512zM512 903.121c251.345 0 455.121-203.776 455.121-455.121s-203.776-455.121-455.121-455.121-455.121 203.776-455.121 455.121 203.776 455.121 455.121 455.121zM547.84 348.532v355.468h-71.68v-355.468h71.68zM563.2 236.916c0 6.051-1.396 11.776-4.189 17.036-2.997 5.465-6.774 10.103-11.246 13.956l-0.065 0.054c-4.691 4.060-10.19 7.343-16.204 9.563l-0.366 0.118c-5.866 2.234-12.65 3.527-19.735 3.527s-13.869-1.294-20.127-3.657l0.392 0.13c-6.051-2.327-11.357-5.585-15.965-9.681-4.381-3.909-8.010-8.548-10.719-13.744l-0.126-0.266c-2.514-5.020-3.986-10.937-3.986-17.199s1.472-12.179 4.088-17.425l-0.102 0.227c2.653-5.492 6.284-10.287 10.845-14.429 9.376-8.183 21.724-13.173 35.236-13.173 0.081 0 0.163 0 0.244 0.001h-0.013c6.982 0.047 13.684 1.21 20.015 3.537 6.284 2.327 11.776 5.585 16.524 9.681 4.575 3.985 8.349 8.754 11.138 14.117l0.126 0.266c2.669 5.026 4.236 10.988 4.236 17.317 0 0.016 0 0.032 0 0.047v-0.002z" />
<glyph unicode="&#xe926;" glyph-name="checkbox-checked" d="M204.8 960h614.4c113.108 0 204.8-91.692 204.8-204.8v-614.4c0-113.108-91.692-204.8-204.8-204.8h-614.4c-113.108 0-204.8 91.692-204.8 204.8v614.4c0 113.108 91.692 204.8 204.8 204.8zM249.393 436.569c-18.051 15.147-44.963 12.792-60.11-5.259s-12.792-44.963 5.259-60.11l163.423-137.128 54.851 65.369-163.423 137.128zM834.717 669.49c15.147 18.051 12.792 44.963-5.259 60.11s-44.963 12.792-60.11-5.259l-411.384-490.268 39.221-32.911c14.441-12.117 35.971-10.234 48.088 4.207l389.444 464.121z" />
<glyph unicode="&#xe927;" glyph-name="checkbox" d="M204.8 891.733c-75.405 0-136.533-61.128-136.533-136.533v-614.4c0-75.405 61.128-136.533 136.533-136.533h614.4c75.405 0 136.533 61.128 136.533 136.533v614.4c0 75.405-61.128 136.533-136.533 136.533h-614.4zM204.8 960h614.4c113.108 0 204.8-91.692 204.8-204.8v-614.4c0-113.108-91.692-204.8-204.8-204.8h-614.4c-113.108 0-204.8 91.692-204.8 204.8v614.4c0 113.108 91.692 204.8 204.8 204.8z" />
<glyph unicode="&#xe928;" glyph-name="thin-cross" d="M511.992 493.655l456.97 456.97c12.937 12.937 33.108 12.667 45.715 0.060 12.239-12.239 12.58-33.074-0.060-45.715l-456.97-456.97 456.97-456.97c12.64-12.64 12.299-33.476 0.060-45.715-12.607-12.607-32.778-12.877-45.715 0.060l-456.97 456.97-456.97-456.97c-12.937-12.937-33.108-12.667-45.715-0.060-12.239 12.239-12.58 33.074 0.060 45.715l456.97 456.97-456.97 456.97c-12.64 12.64-12.299 33.476-0.060 45.715 12.607 12.607 32.778 12.877 45.715-0.060l456.97-456.97z" />
<glyph unicode="&#xe929;" glyph-name="menu" horiz-adv-x="1575" d="M39.385 14.769h1496.615c21.752 0 39.385-17.633 39.385-39.385s-17.633-39.385-39.385-39.385h-1496.615c-21.752 0-39.385 17.633-39.385 39.385s17.633 39.385 39.385 39.385zM39.385 487.385h1496.615c21.752 0 39.385-17.633 39.385-39.385s-17.633-39.385-39.385-39.385h-1496.615c-21.752 0-39.385 17.633-39.385 39.385s17.633 39.385 39.385 39.385zM39.385 960h1496.615c21.752 0 39.385-17.633 39.385-39.385s-17.633-39.385-39.385-39.385h-1496.615c-21.752 0-39.385 17.633-39.385 39.385s17.633 39.385 39.385 39.385z" />
<glyph unicode="&#xe92a;" glyph-name="logo-coach" horiz-adv-x="9045" d="M3331.527 784.953c-179.655 105.131-419.328 163.1-674.93 163.1-255.829 0-495.502-57.913-674.987-163.044-131.47-77.767-206.848-200.363-206.848-336.327s75.378-258.56 206.848-336.668c179.2-105.244 418.93-163.1 674.987-163.1 255.829 0 495.445 57.913 674.93 163.1 131.47 77.881 206.905 200.533 206.905 336.668 0 136.078-75.435 258.674-206.905 336.27zM2656.597-13.995c-163.556 0-440.32 97.451-440.32 462.677 0 319.26 221.070 462.222 440.32 462.222 293.888 0 469.333-172.885 469.333-462.222 0-311.41-153.486-462.677-469.333-462.677zM9011.2 896.455v37.205h-729.884v-37.205h158.891v-404.992h-627.996v405.163l159.004-0.171v34.133l-0.114 3.072h-729.316v-37.205h158.891v-896.91h-158.891v-37.035h729.429v37.035h-159.004v454.77h627.996v-454.77h-158.891v-37.035l729.884 0.114v36.921h-159.175v896.91zM4443.591 947.029l-0.967 1.024h-21.959l-774.485-948.508h-174.933v-37.035h437.362v37.035l-214.187 0.341 195.243 237.284 698.766 0.171 218.055-237.796h-208.782l-0.341-37.035h916.423v37.035l-202.695 0.228-867.499 947.257zM4553.785 274.318l-635.278-0.114 295.31 364.203 339.968-364.089zM1481.842 338.603l-0.74-2.105c-0.284-0.91-29.753-88.69-111.218-175.332-75.093-79.929-211.058-175.161-432.469-175.161-149.276 0-270.393 55.012-350.379 159.118-62.862 81.692-98.873 192.057-98.873 302.763 0 300.772 231.481 463.019 449.252 463.019 147.627 0 281.543-46.535 387.129-134.656 88.292-73.614 138.752-160.256 156.558-216.576l0.683-2.219h29.582v376.206h-27.25l-182.613-98.19c-8.135 5.575-46.99 30.834-110.933 55.808-66.503 25.884-174.535 56.775-311.979 56.775-220.729 0-425.244-42.041-575.829-118.5-175.73-89.202-268.629-220.956-268.629-380.871 0-327.68 309.419-500.736 894.976-500.736 145.294 0 271.303 37.376 374.613 111.332l178.859-96.654 28.786-0.341v376.434l-29.525-0.114zM6389.362 910.905c147.74 0 281.486-46.535 387.072-134.656 88.292-73.614 138.752-160.256 156.672-216.576l0.683-2.219h29.582v376.206h-27.307l-182.556-98.19c-8.192 5.575-46.99 30.834-110.99 55.808-66.446 25.828-174.421 56.718-311.865 56.718-220.786 0-425.301-42.041-575.886-118.5-175.787-89.145-268.629-220.956-268.629-380.871 0-327.68 309.476-500.736 895.033-500.736 145.294 0 271.36 37.376 374.556 111.332l178.802-96.654 28.9-0.341v376.32h-29.582l-0.683-2.105c-0.341-0.91-29.753-88.69-111.218-175.332-75.036-79.929-211.115-175.161-432.526-175.161-149.276 0-270.393 55.012-350.436 159.118-62.805 81.692-98.816 192.057-98.816 302.763-0.057 300.828 231.424 463.076 449.195 463.076z" />
</font>
</defs>
</svg>
