<?xml version="1.0" encoding="utf-8"?>
<!-- Generator: Adobe Illustrator 22.1.0, SVG Export Plug-In . SVG Version: 6.00 Build 0)  -->
<svg version="1.1" id="Livello_1" xmlns="http://www.w3.org/2000/svg" xmlns:xlink="http://www.w3.org/1999/xlink" x="0px" y="0px"
	 viewBox="0 0 100 100" style="enable-background:new 0 0 100 100;" xml:space="preserve">
<g id="g2806">
	<g id="path630">
		<path d="M91.4,25.1c-0.8-0.2-1.6,0.4-1.8,1.2l-1.9,9.4c-2.2-0.2-3.3-1.2-4.7-2.5c-1.7-1.5-3.6-3.2-7.4-3.2s-5.7,1.7-7.4,3.2
			c-1.6,1.4-2.8,2.5-5.4,2.5c-2.7,0-3.9-1.1-5.4-2.5C55.7,31.7,53.8,30,50,30c-3.8,0-5.7,1.7-7.4,3.2c-1.6,1.4-2.8,2.5-5.4,2.5
			c-2.7,0-3.9-1.1-5.4-2.5c-1.7-1.5-3.6-3.2-7.4-3.2s-5.7,1.7-7.4,3.2c-1.4,1.2-2.5,2.2-4.5,2.4l-1.9-9.3c-0.2-0.8-1-1.3-1.8-1.2
			c-0.8,0.2-1.3,1-1.2,1.8L17,74c0.1,0.7,0.8,1.2,1.5,1.2h63.1c0.7,0,1.3-0.5,1.5-1.2l9.7-47.2C92.7,26.1,92.2,25.3,91.4,25.1z
			 M80.1,72.3H19.4l-6.7-33.7c2.8-0.4,4.5-1.8,5.9-3.1c1.6-1.4,2.8-2.5,5.4-2.5s3.9,1.1,5.4,2.5c1.7,1.5,3.6,3.2,7.4,3.2
			c3.8,0,5.7-1.7,7.4-3.2c1.6-1.4,2.8-2.5,5.4-2.5c2.7,0,3.9,1.1,5.4,2.5c1.7,1.5,3.6,3.2,7.4,3.2s5.7-1.7,7.4-3.2
			c1.6-1.4,2.8-2.5,5.4-2.5c2.7,0,3.9,1.1,5.4,2.5c1.5,1.3,3.2,2.8,6.1,3.2L80.1,72.3z"/>
	</g>
</g>
<g>
	<path d="M35.9,61.6c0.1-0.2,0.3-0.3,0.4-0.2c0.9,0.5,2.5,1.1,4.2,1.1c3.6,0,4.7-2.3,4.6-4c0-2.9-2.6-4.1-5.3-4.1H39
		c-0.4,0-0.8-0.3-0.8-0.8v-0.5c0-0.4,0.3-0.8,0.8-0.8h0.8c2,0,4.6-1,4.6-3.5c0-1.6-1-3.1-3.6-3.1c-1.5,0-2.9,0.6-3.8,1.1
		c-0.2,0.1-0.4,0-0.4-0.1l-0.5-1.4c0-0.1,0-0.3,0.1-0.4c1.1-0.7,3.1-1.4,5.2-1.4c4,0,5.9,2.4,5.9,4.9c0,2.1-1.3,3.9-3.8,4.8v0.1
		c2.5,0.5,4.6,2.4,4.6,5.3c0,3.3-2.6,6.1-7.5,6.1c-2.2,0-4.1-0.6-5.1-1.3c-0.2,0-0.2-0.1-0.2-0.3L35.9,61.6z"/>
	<path d="M65.1,53.9c0,7-2.6,10.8-7.1,10.8c-4,0-6.7-3.8-6.8-10.5c0-6.9,3-10.7,7.1-10.7C62.7,43.6,65.1,47.4,65.1,53.9z M54,54.3
		c0,5.3,1.6,8.4,4.2,8.4c2.8,0,4.2-3.3,4.2-8.5c0-5-1.3-8.4-4.2-8.4C55.8,45.7,54,48.7,54,54.3z"/>
</g>
<g id="path1556">
	<path d="M81.6,80.8H18.7c-0.7,0-1.4-0.6-1.4-1.3s0.6-1.3,1.4-1.3h62.9c0.7,0,1.4,0.6,1.4,1.3S82.4,80.8,81.6,80.8z"/>
</g>
<g id="path1556_1_">
	<path d="M81.6,86.2H18.7c-0.7,0-1.4-0.6-1.4-1.3s0.6-1.3,1.4-1.3h62.9c0.7,0,1.4,0.6,1.4,1.3S82.4,86.2,81.6,86.2z"/>
</g>
</svg>
