<?xml version="1.0" encoding="utf-8"?>
<!-- Generator: Adobe Illustrator 22.1.0, SVG Export Plug-In . SVG Version: 6.00 Build 0)  -->
<svg version="1.1" id="Livello_1" xmlns="http://www.w3.org/2000/svg" xmlns:xlink="http://www.w3.org/1999/xlink" x="0px" y="0px"
	 viewBox="0 0 100 100" style="enable-background:new 0 0 100 100;" xml:space="preserve">
<g id="g2832" transform="matrix(1.000000,0.000000,0.000000,1.000630,-0.450510,25.74451)">
	<g id="path2831">
		<path d="M83.4,57h4.9c0.5,0,1-0.3,1.3-0.7c0.3-0.5,0.3-1,0-1.5L69.1,16.7L89.3-0.6c0.6-0.5,0.7-1.5,0.2-2.1
			c-0.5-0.6-1.5-0.7-2.1-0.2L67.7,14L51.9-15.2c-0.3-0.5-0.8-0.8-1.3-0.8s-1.1,0.3-1.3,0.8L33.4,14.1l-19.9-17
			c-0.6-0.5-1.6-0.5-2.1,0.2c-0.5,0.6-0.5,1.6,0.2,2.1L32,16.8L11.5,54.8c-0.2,0.5-0.2,1,0,1.5c0.3,0.4,0.8,0.7,1.3,0.7h4.6
			l-5.7,4.9c-0.6,0.5-0.7,1.5-0.2,2.1c0.3,0.3,0.7,0.5,1.1,0.5c0.3,0,0.7-0.1,1-0.4l8.4-7.2h56.8l8.4,7.2c0.3,0.2,0.6,0.4,1,0.4
			c0.4,0,0.9-0.2,1.1-0.5c0.5-0.6,0.5-1.6-0.2-2.1L83.4,57z M85.8,54h-5.9L52.8,30.7l14-12L85.8,54z M50.6-11.4L65.3,16L50.5,28.7
			L35.8,16.1L50.6-11.4z M21,54h-5.6l18.9-35.1l13.8,11.9L21,54z M25.6,54l24.9-21.3L75.3,54H25.6z"/>
	</g>
</g>
</svg>
