<?xml version="1.0" encoding="utf-8"?>
<!-- Generator: Adobe Illustrator 22.1.0, SVG Export Plug-In . SVG Version: 6.00 Build 0)  -->
<svg version="1.1" id="Livello_1" xmlns="http://www.w3.org/2000/svg" xmlns:xlink="http://www.w3.org/1999/xlink" x="0px" y="0px"
	 viewBox="0 0 100 100" style="enable-background:new 0 0 100 100;" xml:space="preserve">
<g id="rect1542_1_">
	<path d="M87.2,10.6H12.7c-0.8,0-1.5,0.7-1.5,1.5v74.5c0,0.8,0.7,1.5,1.5,1.5h74.5c0.8,0,1.5-0.7,1.5-1.5V12.1
		C88.7,11.3,88,10.6,87.2,10.6z M14.2,13.6h20.2L14.2,33.8V13.6z M14.2,38.1l24.4-24.4h12L14.2,50.1V38.1z M85.7,85.1H14.2V54.3
		l40.7-40.7h30.8V85.1z"/>
</g>
<g id="path1537">
	<path d="M72.5,50.9H27.4c-0.8,0-1.5-0.7-1.5-1.5s0.7-1.5,1.5-1.5h45.1c0.8,0,1.5,0.7,1.5,1.5S73.4,50.9,72.5,50.9z"/>
</g>
</svg>
