<?xml version="1.0" encoding="utf-8"?>
<!-- Generator: Adobe Illustrator 22.1.0, SVG Export Plug-In . SVG Version: 6.00 Build 0)  -->
<svg version="1.1" id="Livello_1" xmlns="http://www.w3.org/2000/svg" xmlns:xlink="http://www.w3.org/1999/xlink" x="0px" y="0px"
	 viewBox="0 0 100 100" style="enable-background:new 0 0 100 100;" xml:space="preserve">
<g id="rect1542">
	<path d="M95.8,75.8l-7-4.3V27.2l7.1-4.4c0.7-0.4,0.9-1.4,0.5-2.1c-0.4-0.7-1.4-0.9-2.1-0.5l-5.6,3.4V11.9c0-0.8-0.7-1.5-1.5-1.5
		H12.7c-0.8,0-1.5,0.7-1.5,1.5v11.7l-5.6-3.4C4.9,19.8,4,20,3.5,20.7c-0.4,0.7-0.2,1.6,0.5,2.1l7.1,4.4v44.3l-7,4.3
		c-0.7,0.4-0.9,1.4-0.5,2.1C4,78.3,4.5,78.6,5,78.6c0.3,0,0.5-0.1,0.8-0.2l5.4-3.3v11.6c0,0.8,0.7,1.5,1.5,1.5h74.7
		c0.8,0,1.5-0.7,1.5-1.5V75l5.4,3.3c0.2,0.2,0.5,0.2,0.8,0.2c0.5,0,1-0.2,1.3-0.7C96.8,77.2,96.5,76.2,95.8,75.8z M50,47.6l-27.6-17
		c1.2-1.7,2.5-3.4,4-4.9C32.7,19.4,41.1,16,50,16s17.3,3.5,23.5,9.8c1.5,1.5,2.9,3.1,4,4.9L50,47.6z M79.1,33.1
		c0.6,1.1,1.2,2.2,1.6,3.4c1.7,4,2.5,8.3,2.5,12.8c0,5.8-1.5,11.3-4.2,16.2L52.9,49.3L79.1,33.1z M47.1,49.3L20.9,65.5
		c-2.7-4.9-4.2-10.4-4.2-16.2c0-5.7,1.4-11.3,4.2-16.1L47.1,49.3z M14.2,13.4h30.1c-7.5,1.2-14.4,4.7-19.9,10.2
		c-1.7,1.7-3.2,3.5-4.5,5.4l-5.7-3.5V13.4z M14.2,29l4.2,2.6c-2.1,3.7-3.5,7.7-4.2,11.9V29z M14.2,55.1c0.7,4.2,2.1,8.3,4.2,12
		l-4.2,2.6V55.1z M14.2,85.1v-12l5.8-3.5c1.3,1.9,2.8,3.7,4.4,5.3c5.5,5.5,12.4,9,19.9,10.2H14.2z M26.5,72.8
		c-1.5-1.5-2.8-3.1-4-4.8L50,51.1L77.5,68c-1.2,1.7-2.5,3.3-4,4.8c-6.3,6.3-14.6,9.8-23.5,9.8S32.7,79.1,26.5,72.8z M85.8,85.1H55.8
		c7.5-1.2,14.4-4.7,19.9-10.2c1.7-1.7,3.1-3.4,4.4-5.3l5.8,3.5V85.1z M85.8,69.6l-4.2-2.6c0.7-1.3,1.3-2.5,1.9-3.9
		c1.1-2.6,1.8-5.3,2.3-8.1V69.6z M85.8,43.5c-0.7-4.2-2.1-8.2-4.2-11.9l4.2-2.6V43.5z M85.8,25.5L80.1,29c-1.3-1.9-2.8-3.7-4.5-5.4
		c-5.5-5.5-12.4-9-19.9-10.2h30.1V25.5z"/>
</g>
</svg>
