<?xml version="1.0" encoding="utf-8"?>
<!-- Generator: Adobe Illustrator 22.1.0, SVG Export Plug-In . SVG Version: 6.00 Build 0)  -->
<svg version="1.1" id="Livello_1" xmlns="http://www.w3.org/2000/svg" xmlns:xlink="http://www.w3.org/1999/xlink" x="0px" y="0px"
	 viewBox="0 0 100 100" style="enable-background:new 0 0 100 100;" xml:space="preserve">
<circle cx="55.6" cy="63.3" r="5.7"/>
<g id="path1842">
	<path d="M94,78.3H6c-0.5,0-1-0.3-1.3-0.8c-0.3-0.5-0.3-1,0-1.5C5.4,74.9,21.8,47.8,39,47.8c0,0,0,0,0,0h47.6l-4.8-23.2h-54
		c-0.8,0-1.5-0.7-1.5-1.5s0.7-1.5,1.5-1.5H83c0.7,0,1.3,0.5,1.5,1.2l11,53.7c0.1,0.4,0,0.9-0.3,1.2S94.5,78.3,94,78.3z M8.7,75.3
		h83.5l-5-24.5H39C26.2,50.8,13,68.9,8.7,75.3z"/>
</g>
</svg>
