<?xml version="1.0" encoding="utf-8"?>
<!-- Generator: Adobe Illustrator 22.1.0, SVG Export Plug-In . SVG Version: 6.00 Build 0)  -->
<svg version="1.1" id="Livello_1" xmlns="http://www.w3.org/2000/svg" xmlns:xlink="http://www.w3.org/1999/xlink" x="0px" y="0px"
	 viewBox="0 0 100 100" style="enable-background:new 0 0 100 100;" xml:space="preserve">
<g id="g2832" transform="matrix(1.000000,0.000000,0.000000,1.000630,-0.450510,25.74451)">
	<g id="path2831">
		<path d="M79.5,41.5c2.1-2.8,3.8-5.8,5.1-9c1.8-4.6,2.8-9.5,2.8-14.6c0-8.3-2.5-16.2-7.3-22.8l8.7-7.4c0.6-0.5,0.7-1.5,0.2-2.1
			c-0.5-0.6-1.5-0.7-2.1-0.2l-8.6,7.3c-0.5-0.6-1.1-1.2-1.7-1.8c-7-7.2-16.3-11.2-26.1-11.2S31.3-16.3,24.3-9
			c-0.6,0.6-1.1,1.2-1.7,1.8l-8.6-7.3c-0.6-0.5-1.6-0.5-2.1,0.2c-0.5,0.6-0.5,1.6,0.2,2.1l8.7,7.4c-4.7,6.5-7.3,14.5-7.3,22.8
			c0,8.7,2.8,16.9,7.9,23.6l-9.1,7.8c-0.6,0.5-0.7,1.5-0.2,2.1c0.3,0.3,0.7,0.5,1.1,0.5c0.3,0,0.7-0.1,1-0.4l9.1-7.8
			c0.3,0.4,0.7,0.7,1,1.1c7,7.2,16.3,11.2,26.1,11.2s19.2-4,26.1-11.2c0.3-0.4,0.7-0.7,1-1.1l9.1,7.8c0.3,0.2,0.6,0.4,1,0.4
			c0.4,0,0.8-0.2,1.1-0.5c0.5-0.6,0.5-1.6-0.2-2.1L79.5,41.5z M77.8-2.9c1.6,2.3,3,4.7,4,7.3c1.7,4.2,2.6,8.8,2.6,13.5
			c0,7.9-2.5,15.5-7.2,21.6l-24.5-21L77.8-2.9z M26.5-7c6.4-6.6,14.9-10.3,24-10.3S68-13.6,74.4-7C75-6.4,75.5-5.8,76-5.2L50.5,16.6
			L24.9-5.2C25.4-5.8,26-6.4,26.5-7z M23.7,39.5c-4.6-6.1-7.2-13.7-7.2-21.6c0-7.6,2.3-14.8,6.6-20.8l25,21.5L23.7,39.5z M74.4,42.8
			c-6.4,6.6-14.9,10.3-24,10.3s-17.6-3.7-24-10.3c-0.3-0.3-0.6-0.6-0.9-1l24.9-21.3l24.9,21.3C75,42.2,74.7,42.5,74.4,42.8z"/>
	</g>
</g>
</svg>
