<svg id="Icon_profile" data-name="Icon/profile" xmlns="http://www.w3.org/2000/svg" width="13.776" height="16.686" viewBox="0 0 13.776 16.686">
  <path id="Fill_1" data-name="Fill 1" d="M13.776,16.686H0V12.317A5.193,5.193,0,0,1,1.2,8.993,5.026,5.026,0,0,1,4.183,7.256,4.178,4.178,0,0,1,2.8,4.152,4.124,4.124,0,0,1,6.888,0a4.124,4.124,0,0,1,4.086,4.152A4.136,4.136,0,0,1,9.554,7.3,5.275,5.275,0,0,1,12.57,9.129a5.4,5.4,0,0,1,1.206,3.405v4.151ZM5.059,8.8a3.535,3.535,0,0,0-3.5,3.558v2.768H12.219V12.554A3.731,3.731,0,0,0,8.522,8.8ZM6.888,1.621a2.57,2.57,0,1,0,2.53,2.57A2.552,2.552,0,0,0,6.888,1.621Z" transform="translate(0)"/>
</svg>
