<?xml version="1.0" encoding="utf-8"?>
<!-- Generator: Adobe Illustrator 25.0.0, SVG Export Plug-In . SVG Version: 6.00 Build 0)  -->
<svg version="1.1" id="Livello_1" xmlns="http://www.w3.org/2000/svg" xmlns:xlink="http://www.w3.org/1999/xlink" x="0px" y="0px"
	 viewBox="0 0 22.3 19.2" style="enable-background:new 0 0 22.3 19.2;" xml:space="preserve">
<path d="M20.6,1.7C19.5,0.6,18,0,16.4,0l0,0c-1.6,0-3.1,0.6-4.2,1.7l-1.1,1.1L10,1.7c-2.3-2.3-6-2.3-8.3,0s-2.3,6,0,8.3l8.9,8.9
	c0.1,0.1,0.3,0.2,0.5,0.2l0,0c0.2,0,0.4-0.1,0.6-0.2l8.9-8.9c1.1-1.1,1.7-2.6,1.7-4.2C22.3,4.4,21.7,2.8,20.6,1.7z M13.4,2.7
	c0.8-0.8,1.9-1.2,3-1.2c0,0,0,0,0.1,0c1.1,0,2.2,0.5,3,1.3c1.7,1.7,1.7,4.5,0,6.2l-8.3,8.4L2.8,9c-1.7-1.7-1.7-4.5,0-6.2
	C3.6,2,4.7,1.5,5.9,1.5c1.1,0,2.2,0.5,3,1.3l1.7,1.7c0.3,0.3,0.7,0.3,1.1,0L13.4,2.7z"/>
</svg>
