<svg xmlns="http://www.w3.org/2000/svg" width="620.05" height="168.056" viewBox="0 0 620.05 168.056"><defs><style>.a{fill:#080d1f;}</style></defs><g transform="translate(310.025 84.028)"><g transform="translate(-310.025 -84.028)"><g transform="translate(231.88)"><path class="a" d="M240.018,11.172a8.318,8.318,0,0,0,1.664,2.139,5.348,5.348,0,0,0-1.545,3.566,2.615,2.615,0,0,1-2.5-1.07,8.082,8.082,0,0,1,2.377-4.635ZM239.9,22.7a8.082,8.082,0,0,1-2.02-3.447,4.873,4.873,0,0,0,2.02.357l.832-.238a5.7,5.7,0,0,0,2.139,2.139,11.05,11.05,0,0,0-.357,2.734A8.082,8.082,0,0,1,239.9,22.7Zm3.328-1.664a4.4,4.4,0,0,1-1.783-1.9A2.971,2.971,0,0,0,242.158,17a4.041,4.041,0,0,0-.594-2.377l.713-.951a.951.951,0,0,0,1.07-.119c.357-.119.832-.119.713-.832a1.664,1.664,0,0,0,1.307.475l2.139-.357a4.754,4.754,0,0,1,2.734,4.279,4.635,4.635,0,0,1-2.139,3.922,1.545,1.545,0,0,0-1.189-.594l-1.07.238c-.475,0-.594-.238-1.189-.238a1.783,1.783,0,0,0-1.426.594Zm5.467,3.447a11.767,11.767,0,0,0-.238-2.852,5.348,5.348,0,0,0,.119-9.152l2.852-1.189a7.844,7.844,0,0,1,2.377,5.7,8.082,8.082,0,0,1-5.111,7.488Zm1.189-1.664a.475.475,0,0,1-.594-.475.832.832,0,0,1,.357-.713,6.3,6.3,0,0,0,2.139-4.754,6.061,6.061,0,0,0-.951-3.209c-.119-.238-.475-.594-.475-.951a.594.594,0,0,1,.594-.594c.357,0,.475.238.713.594a7.369,7.369,0,0,1-.475,9.033c-.119.238-.832,1.07-1.307,1.07Zm-8.2.238-.594-.238a6.537,6.537,0,0,1-1.545-1.664v-.238a.625.625,0,0,1,1.189-.238h0a5.468,5.468,0,0,0,1.307,1.426.509.509,0,1,1-.357.951Zm-2.615-7.012a.594.594,0,0,1-.594-.594,5.467,5.467,0,0,1,.594-1.9c.119-.238.475-.713.832-.713a.475.475,0,0,1,.475.594,1.308,1.308,0,0,1-.238.594,7.133,7.133,0,0,0-.594,1.426.713.713,0,0,1-.475.594Zm.594-5.467-.357.238c-1.545-1.783-2.971-3.209-2.971-5.586A.951.951,0,0,1,237.4,4.4a2.971,2.971,0,0,1,1.188.357c.119.713,0,3.922,1.07,5.7Zm3.209,60.5a.713.713,0,0,1-.713.713.832.832,0,0,1-.713-.832l.238-2.377c.357-.475.832-2.734,1.07-2.734Zm3.447.475a.78.78,0,1,1-1.545,0V67.27c.238-.119.832-3.684,1.07-4.279ZM244.772,35.18c-.238.119-.594,2.258-.713,2.258s0-.238,0-.357l.238-13.193V22.7a.416.416,0,0,1,.832,0Zm2.02,14.262L246.2,22.82a.357.357,0,0,1,.357-.475c.238,0,.357.238.357.475l.713,24.721c-.119,0-.594,1.783-.832,1.9Zm28.168-25.434a3.1,3.1,0,0,0,1.307-2.377,11.649,11.649,0,0,0-.238-1.783,1.307,1.307,0,0,0-.713-1.07l-1.307-.238a9.033,9.033,0,0,0-2.852.594,19.729,19.729,0,0,0-4.992,3.09c-.475.357-1.189.951-1.664.951s-1.07-.951-1.07-1.783a12.6,12.6,0,0,1,.357-3.09l3.09-1.664a1.307,1.307,0,0,0,.951-1.307,1.545,1.545,0,0,0-.357-.832c-.357-.594-2.615-2.971-4.992-2.971s-3.209,4.635-4.279,6.061a8.083,8.083,0,0,0,.119-2.5,6.061,6.061,0,0,0-5.7-3.684l-.475-.594c1.189-.594,2.377-1.307,2.377-2.734a2.852,2.852,0,0,0-.713-2.139,15.807,15.807,0,0,0-3.684-2.734,6.418,6.418,0,0,0-2.852-.951c-1.545,0-1.783.832-2.377,2.139a12.834,12.834,0,0,0-.832,3.922l-1.189.357a3.8,3.8,0,0,1-.594-2.5c0-.832.119-2.02.119-3.209s0-.951-.951-1.783S240.018,0,239.543,0c-2.258,0-4.754,7.25-4.635,9.27a4.041,4.041,0,0,0,1.189,2.5l1.545,1.664a7.6,7.6,0,0,0-.475,1.545l-1.189-1.426a1.664,1.664,0,0,0-1.664-.713,7.487,7.487,0,0,0-2.971,1.07,18.779,18.779,0,0,0-2.5,1.9,3.09,3.09,0,0,0-1.07,2.139,8.2,8.2,0,0,0,.951,2.5h0a.832.832,0,0,0,.832.475h.832c.238,0,.475.119.475.357s-.238.475-.951.951a43.494,43.494,0,0,1-3.922,2.02c-.832.357-1.783.594-2.02,1.664a5.824,5.824,0,0,1-1.783,2.971,7.369,7.369,0,0,1-1.9-5.229c0-.357.119-.951.119-1.307a.713.713,0,0,0-.357-.713l-1.9-1.545a1.426,1.426,0,0,0-.713-.357h-.475c-1.426,1.307-4.16,1.426-5.229,1.426s-2.971.713-2.971,2.139,1.307,2.852,1.545,3.447-2.615-2.5-5.111-2.5a5.586,5.586,0,0,0-3.922,2.02,2.14,2.14,0,0,0-.475,1.07c0,1.07.713,1.307,2.377,2.377-1.307.119-3.566.594-4.4,1.783a3.09,3.09,0,0,0-.475,1.9,10.936,10.936,0,0,1,1.545-1.307,3.8,3.8,0,0,0,2.139,1.9,2.615,2.615,0,0,1,1.307-2.615l2.5-1.426a.951.951,0,0,0,.594-.832c0-.594-.594-.951-.951-1.189l-1.664-1.07,1.426.357a4.279,4.279,0,0,1,2.258-.475c.951,0,2.139.832,3.09.832s2.377-.475,2.377-1.426-.832-1.545-.832-2.02.357-.475.594-.475h2.5a5.467,5.467,0,0,0,3.684-1.783,3.684,3.684,0,0,1-1.426,1.664,21.276,21.276,0,0,0,.713,3.8,2.5,2.5,0,0,0,2.615,2.02A4.992,4.992,0,0,0,222.31,29a2.853,2.853,0,0,0,1.307.475,2.258,2.258,0,0,0,1.9-.951,3.684,3.684,0,0,1,1.545-1.545,59.668,59.668,0,0,0,5.943-3.209c.594-.475,1.545-.951,1.545-1.9a1.545,1.545,0,0,0-1.545-1.664h-.713c-.475,0-.713-.475-.832-.713a2.5,2.5,0,0,1-.475-1.307,1.069,1.069,0,0,1,.238-.713,5.348,5.348,0,0,1,3.09-1.545.832.832,0,0,1,.713.594,20.082,20.082,0,0,0,1.783,2.377,8.439,8.439,0,0,0,5.467,6.537c-.357,4.4-.832,13.193-1.426,21.512s-1.426,23.414-1.426,23.889a3.044,3.044,0,0,0,1.189,2.139,5.229,5.229,0,0,0,2.852.357,3.922,3.922,0,0,0,4.16-.238,5.23,5.23,0,0,0,1.783,0c.951-.238,1.783-.594,1.664-2.5l-.713-12.955c-.594-11.053-1.426-25.791-1.783-32.328a8.8,8.8,0,0,0,5.7-8.2,9.507,9.507,0,0,0-.357-2.615c1.426.238,2.615,1.9,2.971,4.041s-.119,2.377.832,2.615a1.9,1.9,0,0,0,1.664-.832,5.943,5.943,0,0,0,1.189-3.09l.357-1.9c.119-.475.357-.951.951-.951a5.229,5.229,0,0,1,2.02.832,1.189,1.189,0,0,1,.594.832,6.418,6.418,0,0,1-.951,2.02h0a6.656,6.656,0,0,0-3.209,5.7,2.852,2.852,0,0,0,3.09,3.209,6.656,6.656,0,0,0,3.328-1.189c2.021-1.307,5.111-3.922,7.25-3.922h0l-1.07.357a3.209,3.209,0,0,0-.832,2.02c0,1.783,2.139,3.209,4.873,3.209a9.627,9.627,0,0,0,3.922-.832,7.131,7.131,0,0,1,2.852-.832,5.586,5.586,0,0,1,3.09,1.189,3.565,3.565,0,0,0-1.426-2.734l1.783-.238a5.229,5.229,0,0,0-3.8-1.9c-2.377,0-3.209,2.258-6.537,2.258a3.565,3.565,0,0,1-1.9-.475Zm-26.147,47.3a.713.713,0,0,1-.713-.713V67.389c.357-.594.594-2.258.832-2.258l.594,5.467a.594.594,0,0,1-.713.713ZM217.437,19.967l.594.238.951.713.832.357a.951.951,0,0,0-.713.238l-.713.238a2.734,2.734,0,0,1-1.426-.475l-.713-.475C216.961,20.561,217.08,19.967,217.437,19.967Zm15.57.119a1.307,1.307,0,0,1,1.189,1.426A1.545,1.545,0,0,1,233.6,22.7h-.238l-.475-.238-1.426-.951c.475-.238,1.545-.594,1.545-1.07a.475.475,0,0,0-.238-.357Zm-21.393,4.041-1.783-.832c-.357-.238-.713-.357-.713-.713a1.188,1.188,0,0,1,.951-.832c.357,0,.475.238.713.475l1.07,1.189v.357a.357.357,0,0,1-.238.357ZM241.088,3.684a17.115,17.115,0,0,0-.832,4.754,5.467,5.467,0,0,0,.951,2.852h-.119c-.357,0-2.02-2.377-2.02-6.656a3.209,3.209,0,0,0,2.02-.951Zm4.279,8.2a1.355,1.355,0,0,1-.475-1.189,3.09,3.09,0,0,1,.594-1.664l2.734-3.8a1.545,1.545,0,0,1,1.307-.713c1.07,0,3.328,2.02,3.328,2.852a.713.713,0,0,1-.475.713.594.594,0,0,0,.238-.475,3.684,3.684,0,0,0-2.734-2.258c-.594,0-.951.357-1.426.951l-2.615,3.209a2.5,2.5,0,0,0-.594,1.426A3.8,3.8,0,0,0,245.367,11.885ZM225.637,25.078l1.189.951c.119.119.238.119.238.238h-.119a3.446,3.446,0,0,0-.713.832l-1.545-1.189a.7.7,0,1,1,.951-.832Zm35.537-10.816-.713-.951a.832.832,0,0,1-.119-.475c0-.475.951-.951,1.783-.951s.594.238.594.475a1.425,1.425,0,0,1-.119.357l-.238.713q-.178.357-.357.357a.832.832,0,0,0-.832.475Zm13.074,4.754h.713a.951.951,0,0,1,.713.713,7.13,7.13,0,0,1,.357,1.783,1.665,1.665,0,0,1-.119.594c0-.238-.238-1.07-1.426-1.07s-.357,0-.357-.238l-.238-1.545a.357.357,0,0,1,.357-.238Zm-13.311,5.467a1.07,1.07,0,0,1,.357-.713l1.9-1.426a1.783,1.783,0,0,0,.238,1.07.9.9,0,0,1,.238.475.713.713,0,0,1-.119.475l-.832,1.189-.713.357a1.189,1.189,0,0,1-.951-1.426ZM249.408,9.033l-1.664-.594c.832-1.07,1.307-1.783,1.783-1.783a1.664,1.664,0,0,1,1.426,1.426C250.953,8.557,250.6,8.8,249.408,9.033Z" transform="translate(-194.498)"/><path class="a" d="M267.005,50.777a.713.713,0,0,1-.713.475.551.551,0,0,1-.475-.832,4.872,4.872,0,0,0,.238-2.139c0-.475-.238-1.07-.238-1.426s.119-.357.238-.357-.119,2.258,1.307,2.615a4.161,4.161,0,0,1-.357,1.664Zm-2.139-5.586c-.119-.238-.475-.951-.951-.832s-.357.713-.119,1.07a4.754,4.754,0,0,1,.357,3.209c-.119.357-.119.713.238.713s.832-1.189.832-2.02A5.7,5.7,0,0,0,264.866,45.191Zm5.824,3.566c-.238-.475-.475-.594-.832-.594s-.594.357-.475.832a8.321,8.321,0,0,1,.119,1.189,7.61,7.61,0,0,1-.238,1.545.594.594,0,0,0,.713.594c.594,0,.951-.951.951-1.783a5.108,5.108,0,0,0-.119-1.783Zm-8.32-3.922a4.279,4.279,0,0,0-1.189-2.02c-.357-.357-.475-.475-.713-.475a.238.238,0,0,0-.238.238.713.713,0,0,0,.119.475,4.041,4.041,0,0,1,1.07,2.852c0,.357-.119.951-.119,1.189a.618.618,0,0,0,.238.475.594.594,0,0,0,.594-.238,3.447,3.447,0,0,0,.357-2.5ZM278.177,58.74c-.357,0-.475.119-.475.475s.238.357.594.475a.786.786,0,1,1-.951.951c-.119-.357-.238-.475-.475-.475a.544.544,0,0,0-.475.594,1.545,1.545,0,0,0,1.783,1.426,1.665,1.665,0,1,0,.119-3.328Zm-5.111-1.545c-.119-.594-.475-.713-.713-.713s-.475.475-.238.951a2.377,2.377,0,0,1-.594,2.377l-.238.357c0,.119.119.238.357.238H272a3.09,3.09,0,0,0,1.07-3.209ZM259.161,43.052c-.357-1.189-1.426-2.734-2.258-2.734a.475.475,0,0,0-.357.357c0,.238.238.475.713,1.189a5.823,5.823,0,0,1,1.07,4.16c0,.238.238.594.594.357S259.518,44,259.161,43.052Zm-10.221-3.09.475.713c.119.119.713,1.545,1.307,1.545s0-2.377-.475-2.971a7.489,7.489,0,0,0-1.426-1.426Zm31.5,24.84a1.307,1.307,0,0,0-1.426,1.189c0,.832.475,1.426.951,1.426s.357-.238.357-.357-.475-.475-.475-.951a.475.475,0,0,1,.475-.475h.475a.357.357,0,0,0,.357-.357C281.149,65.039,280.911,64.8,280.436,64.8Zm-1.9,2.139a1.189,1.189,0,0,0-1.188-1.189,1.664,1.664,0,0,0-1.664,1.307c0,.119,0,.238.119.238s.475-.713,1.307-.713.594.238.594.713a.357.357,0,0,0,.357.357q.357,0,.357-.713ZM280.2,68.6c-.475,0-.594.119-.594.357s.119.357.238.357.832.357.832.713-.238.475-.238.713a.238.238,0,0,0,.238.238c.475,0,.713-.475.713-.951A1.307,1.307,0,0,0,280.2,68.6Zm-.951,0a.315.315,0,0,0,.357-.357.594.594,0,0,0-.713-.594,1.664,1.664,0,0,0-1.426,1.783,2.615,2.615,0,0,0,.713,1.664,1.664,1.664,0,0,0,1.07.475h.238c0-.238-.238-.238-.475-.475a2.258,2.258,0,0,1-.475-1.426A1.07,1.07,0,0,1,279.247,68.6Zm-10.459-3.566-.713.357a4.754,4.754,0,0,1-2.852.832c-.357,0-.594.119-.594.238s.119.357.475.475l1.307.238a3.209,3.209,0,0,0,2.258-.832c.119-.119.475-.475.475-.713a.475.475,0,0,0-.357-.475ZM248.94,36.277a5.111,5.111,0,0,1,1.307,1.307c.238.475.594.951,1.07.832s.357-.713.119-1.07-.713-.832-.713-1.07a.379.379,0,0,1,.357-.357c.119,0,2.377,2.258,2.377,3.209a.356.356,0,0,1-.357.357l-.832-.357a.475.475,0,0,0-.475.357c0,.357.238.475.713.713a2.258,2.258,0,0,1,1.783,1.9c0,.357-.119,1.07.475,1.07s.594-.475.594-1.07a3.09,3.09,0,0,0-.832-2.02,4.88,4.88,0,0,0-1.545-4.16c1.664-.357,2.258,1.545,2.377,2.5s.119,1.426.713,1.426.832-1.189.475-2.139h.832c2.021,0,2.5,2.615,2.852,4.873s.357.832.832.832a.594.594,0,0,0,.594-.713,6.538,6.538,0,0,0-.713-2.02c-.238-.594,0-1.189.594-1.189s1.9,2.139,2.258,3.09.238,1.189.832,1.189.594-.238.594-.713a5.466,5.466,0,0,0-.357-1.545h.594a2.02,2.02,0,0,1,2.02,2.139,3.209,3.209,0,0,1-.713,1.9,5.586,5.586,0,0,1,1.07,2.734c0,.357.238.713.475.713s.594-.357.594-1.07a5.942,5.942,0,0,0-.951-2.5,3.327,3.327,0,0,0,.475-1.545c1.07.238,1.189,1.426,1.189,2.258a5.946,5.946,0,0,1-.119.832c0,.357.119.713.594.713s.594-.357.594-1.189a3.732,3.732,0,0,0-.119-1.07c0-.119,0-.357.475-.357a2.021,2.021,0,0,1,1.783,1.664.594.594,0,0,1-.594.594c-.713,0-.832.238-.832.475a.771.771,0,0,0,.713.594l1.307-.238a1.426,1.426,0,0,1,1.545,1.664l.832-.238c1.07,0,1.664.594,1.664,1.07V50.9a1.2,1.2,0,0,0-1.307,1.07,1.07,1.07,0,0,0,.119.475,1.426,1.426,0,0,1,1.189-.594,1.545,1.545,0,0,1,1.664,1.189L277.94,52.8a1.9,1.9,0,0,0-2.021,1.545c-.594-.238-1.307-.357-1.307-2.02A1.189,1.189,0,0,0,273.3,50.9c-.357,0-.594-.119-.594-.594a.475.475,0,0,1,.475-.357c.238,0,.357.475.713.475a.357.357,0,0,0,.357-.357c0-.832-1.189-1.07-1.783-1.07h-.951a5.466,5.466,0,0,1,.357,1.783c0,2.377-.951,3.09-.951,3.922a.594.594,0,0,0,.594.594c.475,0,1.426-1.189,1.426-3.328a1.545,1.545,0,0,1,.951,1.426c0,1.07-.832,1.307-.832,2.139a.594.594,0,0,0,.594.594c.832,0,.832-1.426,1.307-1.426a.252.252,0,0,1,.357.357c0,.357-.475.594-.475,1.189a.594.594,0,0,0,.594.594c.475,0,.832.119.832.713s-1.07.951-1.783,1.189a.594.594,0,0,0-.475.713v.594a3.685,3.685,0,0,1-2.615,1.307c-.594.119-.594,1.189.594.832l.594-.357h.238a.357.357,0,0,1,.238.357c0,1.189-2.139,1.07-2.139,2.02s.357.594.594.594a3.09,3.09,0,0,0,1.664-.951,2.257,2.257,0,0,1,.238.832,2.139,2.139,0,0,1-1.783,2.139c-.594,0-.475-.357-1.189-.357s-.475.713-1.307,1.07h-.951l-2.258-.357c-.238,0-.475,0-.475.357a2.02,2.02,0,0,0,.357.832,1.664,1.664,0,0,0,1.426.475c1.9,0,2.971-.238,3.328-1.664h.119c.238,0,.475.357,1.07.357a1.9,1.9,0,0,0,1.664-1.07,1.663,1.663,0,0,0-.238.951c0,.238,0,1.189.713,1.189s.475-.238.475-.713.475-2.139,1.426-2.5.832-.119.832-.475-.238-.475-.713-.475a2.258,2.258,0,0,0-1.426.594.858.858,0,0,0-.119-1.07.951.951,0,0,0,.713-.832c0-.713-.475-1.189-.475-1.783a2.064,2.064,0,0,1,1.188-1.664l.594-.238a1.05,1.05,0,0,1,1.07-1.545,3.209,3.209,0,0,1-1.189-2.5c0-.832.475-1.783,1.426-1.783a.832.832,0,0,1,.951.832c0,.475-.832.357-.832.951s.357.594,1.07.594,1.664.475,1.664,1.307a.832.832,0,0,1-.119.357,2.852,2.852,0,0,0-1.783-.713c-.594,0-.951.119-.951.475a.475.475,0,0,0,.475.475,2.377,2.377,0,0,1,2.5,2.5,2.139,2.139,0,0,1-1.188,1.783.475.475,0,0,0-.238.357c0,.238.119.357.475.357h.594a2.377,2.377,0,0,1-1.664.713,2.5,2.5,0,0,1-1.664-1.07h-.238c-.238,0-.357.238-.357.475a1.188,1.188,0,0,0,.119.594,2.493,2.493,0,0,0,2.377,1.07,2.258,2.258,0,0,0,1.9-.951c1.426.357,1.307,1.9,1.545,2.02a2.02,2.02,0,0,0-1.783,2.02c0,.475.238.951.594.951a.238.238,0,0,0,.238-.238,2.614,2.614,0,0,1-.119-.594,1.032,1.032,0,0,1,.594-.832,4.876,4.876,0,0,0-.119.951c0,1.545.594,2.139.594,3.328a1.622,1.622,0,0,1-1.783,1.783,1.189,1.189,0,0,0,.357-.951c0-.238-.119-.713-.594-.713s-.475.119-.475.713S279.128,73,278.3,73s-2.377-.832-2.377-1.9a1.664,1.664,0,0,1,.594-1.307.617.617,0,0,0,.238-.475c0-.238-.119-.357-.475-.357a1.426,1.426,0,0,0-1.307,1.189.832.832,0,0,1-.119-.357,5.149,5.149,0,0,1,.119-.594.238.238,0,0,0-.238-.238c-.238,0-.713.475-.713,1.189a3.09,3.09,0,0,0,.475,1.426,7.489,7.489,0,0,0-.119.951,10.578,10.578,0,0,0,1.545,5.824,19.254,19.254,0,0,0-2.02,4.635,30.3,30.3,0,0,0-.951,6.061,2.377,2.377,0,0,1-1.783,2.139,14.026,14.026,0,0,0-1.07,3.8c3.565-.713,3.565-2.5,3.447-3.566s-.475-1.189.119-1.07.832-.594.832-.832a5.486,5.486,0,0,1-.357-2.258,17.234,17.234,0,0,1,2.734-8.2,1.188,1.188,0,0,0,.238-.713c0-.832-1.545-2.377-1.545-5.467a2.5,2.5,0,0,0,2.258,1.189l1.664-.238h1.07a2.258,2.258,0,0,0,2.377-2.377c0-1.426-.594-2.139-.594-3.566a7.123,7.123,0,0,1,.119-1.07.656.656,0,0,0,.119-1.307.594.594,0,0,0,.357-.594,2.258,2.258,0,0,0-2.021-2.139,3.09,3.09,0,0,0,1.189-2.5,2.853,2.853,0,0,0-.713-2.139,1.308,1.308,0,0,0,.357-.951,2.021,2.021,0,0,0-1.189-1.783c-.475-.119-.594-.357-.594-.713a9.156,9.156,0,0,0,.238-1.426,2.5,2.5,0,0,0-1.664-2.377,2.983,2.983,0,0,0,0-.357,1.664,1.664,0,0,0-1.188-1.664c-4.279-1.783-2.139-3.922-5.467-4.754s-1.426-1.307-3.09-1.307A2.971,2.971,0,0,0,265.7,40.2l-1.189.238c-.475-.951-.951-1.9-2.258-1.9s-1.9-2.258-4.516-2.258a4.517,4.517,0,0,0-1.545.238,4.754,4.754,0,0,0-4.516-2.258,4.16,4.16,0,0,0-1.664.357l-1.189-.713ZM273.067,68.01a.736.736,0,0,0-.475.238,5.586,5.586,0,0,1-2.971,1.07c-.357,0-.713,0-.713.238s.594.475,1.189.475a6.061,6.061,0,0,0,2.971-.832c.119,0,.119-1.07,0-1.07Zm-12.836-6.656c0-.357-.357-.357-.594-.357a4.992,4.992,0,0,1-4.041-.713l-.357-.238c-.238,0-.357.238-.357.475a3.879,3.879,0,0,0,2.852,1.664c1.426,0,2.5-.119,2.5-.713Zm2.852,2.02a.475.475,0,0,0-.475-.475,10.187,10.187,0,0,1-1.545.357c-.713,0-1.307-.475-2.021-.475a.594.594,0,0,0-.713.594c0,.713.832,1.189,2.377,1.189S263.083,63.97,263.083,63.375Zm2.971.951c-.475,0-.594.238-1.426.238l-1.426-.238a.475.475,0,0,0-.475.357.713.713,0,0,0,.357.594,4.873,4.873,0,0,0,2.02.357c.713,0,1.426-.238,1.426-.832a.713.713,0,0,0-.475-.475Zm7.131,10.34c-1.07-.238-1.545-.475-1.545-.832s.119-.357.357-.357.951.238,2.021.357l-.238-.951c-.119-.594-1.783-.238-1.783-.713s.238-.357.713-.357.832,0,.832-.475V70.15c0-.238-.119-.357-.238-.357h-.238a5.467,5.467,0,0,1-4.4.238c-.238-.119-.594,0-.357.713a1.07,1.07,0,0,0,1.07.713h1.664c.357,0,.475.119.475.238a.7.7,0,0,1-.713.475h-1.07a.238.238,0,0,0-.238.238.832.832,0,0,0,.357.475,11.291,11.291,0,0,1,2.377,2.5,1.07,1.07,0,0,0,.951.475.951.951,0,0,1,.951,1.07.594.594,0,0,1-.594.475h-.594c.475,1.664-.238,4.516.357,4.873s.357-.713.475-.951a10.934,10.934,0,0,1,1.426-3.447c-.713-1.783-.713-2.852-2.02-3.209Zm-14.856-8.8c0-.713-.832-.832-1.307-1.07s-1.9-1.07-1.9-2.02a.475.475,0,0,0-.475-.475.713.713,0,0,0-.475.713,2.716,2.716,0,0,0,1.9,2.258c.713.238.238.238.238.357a.238.238,0,0,1-.238.238,2.258,2.258,0,0,1-1.783-.951c-.238-.238-.357-.475-.475-.475a.475.475,0,0,0-.357.475c0,1.07,1.307,1.783,3.209,1.783s1.664-.357,1.664-.832Zm-4.873-3.8a3.209,3.209,0,0,1-.951-2.734c0-.357.357-.951-.238-.951s-.713.832-.713.832a4.281,4.281,0,0,0-.119,1.07,3.8,3.8,0,0,0,.832,2.5,1.07,1.07,0,0,0,.832.357.594.594,0,0,0,.594-.475.832.832,0,0,0-.357-.594Zm6.18,4.635,1.07.713a2.446,2.446,0,0,0,1.07.594c.238,0,.475-.475.238-.594s-.119-.357.119-.357.357.357.594.594a.951.951,0,0,0,.832.594.475.475,0,0,0,.475-.357,1.308,1.308,0,0,0-.238-.594c-.713-1.07-.832-1.189-2.258-1.189s-1.664-.951-2.5-.951a.475.475,0,0,0-.475.594,3.341,3.341,0,0,0,.951.951Zm7.844,5.229c0-.713-1.189-.832-1.9-1.07s-.357-.119-.357-.357.119-.238.357-.238h.357a.315.315,0,0,0,.357-.357c0-.238-.119-.357-.594-.357h-1.189a.239.239,0,1,1,0-.475c.357,0,.475,0,.475-.238s-.238-.357-.475-.594a.713.713,0,0,1-.832.594c-.713,0-.951-.594-1.664-.594a.475.475,0,0,0-.475.475,2.515,2.515,0,0,0,.357.832c.119.238.475.832.832.832s1.189-.119,1.189.357-.357.713.475.951l1.9.475h.594a.357.357,0,0,0,.594-.238Zm-17-6.893a3.209,3.209,0,0,0,1.783.832.713.713,0,0,0,.594-.713c0-.713-.475-.832-1.189-1.07l-1.189-.475Zm16.283,8.082a8.676,8.676,0,0,0-3.209-1.426,49.791,49.791,0,0,1,1.664,7.488c.238,2.139.475,5.943-.475,8.438a1.545,1.545,0,0,0,.594.594c1.426-2.139,1.189-5.586.951-8.8l.713.238c.713,0,.832-.475.475-.832l-.951-.713a.478.478,0,0,1,.357-.832,1.664,1.664,0,0,1,.951.475,1.783,1.783,0,0,1,.475,1.426c0,2.139-.357,4.4-.357,6.3s-.357,3.566-2.021,3.447-1.307,2.852-1.307,3.922a3.566,3.566,0,0,0,3.565-3.447c-.594-.594-.238-1.189.357-1.189s.594,0,.713-.238-.238-1.189-.119-2.02c0-2.971.475-10.459.475-10.459a3.209,3.209,0,0,1,1.307,2.852c.119,3.566.119,9.152.119,9.508a7,7,0,0,1-.594,1.545l.713.594c.475-.238.832-.832.832-1.9V79.658c-.119-2.971-.357-3.684-1.664-4.992s-1.07-1.07-1.426-1.07-.238.475-.238.832a25.67,25.67,0,0,1-.119,2.615c-.357-.713-1.783-1.189-1.783-1.189s-.713-.357-.713-.832a.475.475,0,0,1,.475-.475l.832.238c.475,0,.475-.238.475-.357A1.783,1.783,0,0,0,266.768,73Zm4.041,17.59a1.545,1.545,0,0,1-.594-.594c-1.783,1.783-1.545,3.566-.713,4.516a14.856,14.856,0,0,1,1.307-4.041Zm-5.943-2.02a2.14,2.14,0,0,1-.475-.594,3.09,3.09,0,0,0-.713,4.279,7.131,7.131,0,0,1,1.189-3.8ZM235.153,44.953c.475,0,.713-.832.713-1.9s-1.07-4.041-2.258-4.041a.713.713,0,0,0-.713.713c0,.475.238.713.713,1.07a4.16,4.16,0,0,1,1.07,3.328C234.678,44.6,234.678,44.953,235.153,44.953Zm-2.377-1.9c0-1.426-.951-3.684-3.09-3.684a.594.594,0,0,0-.713.594c0,.594.713,1.07.713,1.545s-.119.713-.119,1.07.238.951.475.951.475-.357.475-.713a2.854,2.854,0,0,0-.119-.594c0-.238.119-.475.238-.475a1.935,1.935,0,0,1,.713,1.426v1.07c0,.475,0,.713.357.713s1.07-.713,1.07-1.783Zm-3.447,2.139c0-1.07-.238-2.852-1.783-2.852s-.713.238-.713.594,1.307,1.189,1.307,2.734-.119.594-.119.951a.357.357,0,0,0,.357.357c.594.119.951-.713.951-1.664Zm-2.377.951c0-.713-.357-2.139-1.664-2.139a.713.713,0,0,0-.713.594c0,.713.594.832,1.07,1.545s.357,1.307.832,1.307.475-.713.475-1.189Zm-1.07,3.684a3.922,3.922,0,0,0-.594-2.02,1.545,1.545,0,0,0-1.07-.832c-.238,0-.475.119-.475.357s.594.713.951,1.545.119,1.783.594,1.783.475-.238.594-.713Zm10.7,12.955c0,.238.357.357.832.357s3.447-2.02,3.447-4.279-.238-1.07-.594-1.07a.435.435,0,0,0-.475.475c0,.238-.951,3.566-2.615,4.16s-.713.238-.713.475ZM220.653,46.974a2.852,2.852,0,0,0-2.971-1.9c-.832,0-1.307.475-1.307.951a.832.832,0,0,0,.832.951h.951c1.307,0,1.545.475,2.139.475S220.653,47.211,220.653,46.974Zm16.164,10.816c-.713,0-.713.832-.951,1.9a7.369,7.369,0,0,1-2.5,3.684c-.119.119-.357.238-.357.357a.238.238,0,0,0,.238.238h.357a7.963,7.963,0,0,0,2.971-2.852,5.705,5.705,0,0,0,.832-2.377C237.411,58.146,237.292,57.789,236.817,57.789Zm-13.193-5.348c0-1.664-.951-3.922-2.852-3.922s-.713.238-.713.475a.475.475,0,0,0,.357.475c1.307.357,2.02,1.545,2.258,3.09s.119,1.07.475,1.07.594-.475.594-1.189ZM233.37,59.1c0-.238,0-.832-.475-.832s-.594.238-.475.951a6.894,6.894,0,0,1-1.07,3.566c-.238.238-.357.357-.357.594a.238.238,0,0,0,.238.238l.357-.238a6.418,6.418,0,0,0,1.9-4.279Zm-13.906-8.32a.666.666,0,0,0-.713.594.713.713,0,0,0,.238.475,3.565,3.565,0,0,1,1.189,2.258c0,.357.119.951.594.951s.475-.594.475-1.07-.832-3.09-1.664-3.09Zm-1.07-.832a1.783,1.783,0,0,0-.475-.951,4.16,4.16,0,0,0-3.447-1.664c-.475,0-1.545.238-1.545,1.307a.713.713,0,0,0,.832.832c.713,0,.713-.475,1.545-.475a2.615,2.615,0,0,1,1.9,1.07c.119.119.475.594.832.594a.475.475,0,0,0,.475-.594ZM236.342,64.92a.475.475,0,0,0,.475-.475c0-.357-.238-.475-.594-.475s-2.5.238-2.5,1.189.594.713.594,1.307-.238.357-.357.357a.256.256,0,0,0-.238.238c0,.119.238.238.357.238s1.189-.238,1.189-.832-.357-.832-.357-1.07.357-.357,1.545-.357ZM226.6,64.8a6.064,6.064,0,0,0,.238-1.545c0-.475,0-.832-.238-.832s-.238.713-.475,1.307a11.769,11.769,0,0,1-.713,1.426c-.119.238,0,.594.238.594a1.633,1.633,0,0,0,1.07-.951Zm-2.258-5.229a4.754,4.754,0,0,0-1.426-3.8h-.119a.133.133,0,1,0-.238.119h.119a5.824,5.824,0,0,1,.713,3.09,10.928,10.928,0,0,1-.119,1.189c0,.357.119.832.475.713a1.317,1.317,0,0,0,.713-1.307ZM202.35,55.888c-.238,1.783-3.447,1.307-3.447,3.8s-1.545,1.664-1.426,2.971-.238.594-.951.951A2.615,2.615,0,0,0,195.1,64.92a3.565,3.565,0,0,0,3.09,1.545c1.307.119,1.07,3.566,2.377,4.16s1.545,6.061,3.209,8.2c.594,0,.594.357,1.307.357l.713-.357a3.922,3.922,0,0,0,2.139-.357c2.02-.832,2.258-1.07,2.377-2.734a4.16,4.16,0,0,1,.594-3.09,15.452,15.452,0,0,0,2.377-3.8c1.307,0,1.9-1.307,2.377-2.971s1.426-.594,1.426-1.307-.357-.951-.713-.951a1,1,0,0,0-.832.832c-.119.475-.713,1.426-1.307,1.426-.475,1.9-1.426,2.377-1.664,2.377a.594.594,0,0,1-.594-.594,1.545,1.545,0,0,1,.951-1.307c1.07-.594.594-1.545.951-1.545a.951.951,0,0,0,.832-.951.832.832,0,0,0-.832-.951c-.951,0-1.189,1.545-1.189,1.545s-.594,1.07-.832,1.07a.511.511,0,0,1-.475-.475c0-.238.951-1.189.951-2.02a1.188,1.188,0,0,0-.238-.713,4.041,4.041,0,0,0,1.426-3.566,7.844,7.844,0,0,0-.475-2.971.475.475,0,0,0-.475-.357c-.357,0-.357.357-.475.594s-3.8,1.189-5.229,3.922l.594.951c.713-1.664,1.9-1.664,3.447-2.615s1.307-.357,1.307.238a4.16,4.16,0,0,1-2.5,4.279c-.357.119-1.307.594-.713-.594s.475-.951.119-.951-.475.475-.475.475-1.307,1.664-2.258,1.664c.951-.713.832-1.545,1.307-2.377l-.594-.951a1.664,1.664,0,0,1-1.426.713c-1.664,0-1.307-2.139-1.307-2.139s0-.713-.475-.713a1.745,1.745,0,0,0-1.307,1.783,2.5,2.5,0,0,0,2.377,2.5,2.258,2.258,0,0,0,1.426-.475,1.3,1.3,0,0,1-.951,1.426c-.713.119-.713.357-.713.594s.238,1.07,1.545,1.07a3.328,3.328,0,0,0,1.9-.713l.832.238a4.4,4.4,0,0,0,2.02-.832c.119.357-.119.713-.357,1.07a2.5,2.5,0,0,0-.713,1.426.42.42,0,0,0,.475.475,1.07,1.07,0,0,0,.713-.357,2.851,2.851,0,0,1,.119.951c0,1.07-.119,1.07-.119,1.9a.357.357,0,0,0,.357.357.741.741,0,0,0,.594-.357c0,1.9-1.189,2.971-2.615,4.16h.475c-.238.475-.119,1.307-.832,1.9h-.594c0,.357.119,1.189.119,1.783a1.783,1.783,0,0,1-.475,1.426,1.189,1.189,0,0,1-.713.238c-.238,0-.475,0-.475-.594s.357-1.783,0-1.783-.832.357-1.307,1.307-.238.951-1.07,1.189-2.139-6.061-2.258-8.2-1.307-1.783-1.664-3.8c1.545-.119,2.971-1.189,2.971-2.258s-1.07-1.426-1.545-1.783S201.518,61,200.686,61a.713.713,0,0,0-.594.832,2.5,2.5,0,0,0,.713,1.664c.475.475,1.07.713,1.07,1.189s-.475.713-1.07.713-1.783-.951-1.783-2.734.832-2.852,1.9-2.852.594.475.951.475.119-.238.119-.238a1.664,1.664,0,0,1-.119-.832,3.328,3.328,0,0,1,3.447-2.852,1.426,1.426,0,0,1,1.307-1.307c.357-.119.713,0,.832-.713s.357-.594.594-.594.832.357,1.189.357a1.045,1.045,0,0,0,.951-1.07c0-.713-.238-.832-1.189-.832s-.713-.713-.713-.832a2.02,2.02,0,0,1,.713-1.426s-.357,1.189.594,1.189,1.07-.713,1.664-.713.357.951,1.07.951a.594.594,0,0,0,.475-.594c0-.594-.475-1.664-2.139-1.664a2.377,2.377,0,0,0-1.426.475,2.5,2.5,0,0,1,2.02-1.307c1.07-.119,1.783-1.07,2.852-1.07a2.852,2.852,0,0,1,1.545.475c.357-.594-.238-1.9-1.9-1.783a3.328,3.328,0,0,1,2.852-1.426,3.447,3.447,0,0,1,1.783.594,2.139,2.139,0,0,1,1.426-.475c2.139,0,1.9,2.139,2.734,2.139a.594.594,0,0,0,.713-.713,2.734,2.734,0,0,0-2.734-2.615l-1.189.238a3.566,3.566,0,0,1,2.615-.832,4.16,4.16,0,0,1,2.5.951h.357c.238,0,.357-.238.357-.594a3.274,3.274,0,0,0-2.377-1.783l-1.426.238a2.258,2.258,0,0,1,2.02-1.07l1.426.357h.713a2.02,2.02,0,0,1,1.545.951c.119.119.357.475.713.475a.475.475,0,0,0,.594-.475c0-.951-1.426-1.9-2.5-2.139a2.258,2.258,0,0,1,1.9-.951,3.209,3.209,0,0,1,1.783.475,3.922,3.922,0,0,1,3.09-1.664,4.279,4.279,0,0,1,3.684,2.615c.357.713.238,1.664.951,1.664a.594.594,0,0,0,.713-.713,5.467,5.467,0,0,0-2.734-4.4,2.377,2.377,0,0,1,1.783-.713,2.971,2.971,0,0,1,1.664.475c-.713.119-1.307.475-1.307.832a.475.475,0,0,0,.713.475h.713c1.426,0,.832,1.664,1.9,1.664a.357.357,0,0,0,.475-.357,2.377,2.377,0,0,0-1.426-2.377,2.853,2.853,0,0,1,1.9-.713l1.189.238V34.019c-2.377,0-2.971.594-3.447.951a3.922,3.922,0,0,0-2.139-.594,3.328,3.328,0,0,0-2.971,1.426h-1.189a4.4,4.4,0,0,0-3.684,1.664,4.065,4.065,0,0,0-5.111,1.545h-.357a6.775,6.775,0,0,0-5.943,3.922l-1.426-.238a4.873,4.873,0,0,0-4.4,3.447,7.012,7.012,0,0,0-4.041,2.615,4.992,4.992,0,0,0-.832,2.139,4.4,4.4,0,0,1-.951,2.615c-1.189.713-3.685.119-3.922,2.377Zm15.213-1.307c.357,0,.594-.357.594-.951a3.566,3.566,0,0,0-3.209-3.328c-.832,0-1.07.357-1.07.832s.594.832,1.07.832a3.447,3.447,0,0,1,2.02,1.9c.238.832.357.713.713.713Zm14.262,15.213c.832-.475,1.664-1.307,2.139-.475a3.09,3.09,0,0,0,2.734-2.734h.594c1.307,0,2.615-.713,2.615-2.139s-.475-1.545-.951-1.545a.475.475,0,0,0-.475.475,1.07,1.07,0,0,0,.238.475,1.07,1.07,0,0,1,.238.594c0,.951-.832,1.426-1.9,1.426l-1.07-.238a2.564,2.564,0,0,1-3.209,2.734c-.119-.119-.357.119-.475.238s-.713.594-.832.357.475-.713.713-1.189a3.328,3.328,0,0,0,.594-1.426c.119-.357,0-.475-.238-.594s-.475.119-.713.594a6.774,6.774,0,0,1-3.8,3.8,1.187,1.187,0,0,0-.594.475c-.119.238.238.357.357.357a9.27,9.27,0,0,0,2.734-1.07,1.664,1.664,0,0,0,1.426-.119Zm.951,2.971a1.9,1.9,0,0,1-.951,1.07l-.594.238c-.357.119-.119.713.238.713a3.09,3.09,0,0,0,2.734-1.664,4.041,4.041,0,0,0,.357-1.07c0-.357-.119-.475-.238-.357a2.5,2.5,0,0,1-1.426,1.07Zm-.594-1.9c-.238.475-1.189.832-1.189.832l-.238.357a.357.357,0,0,0,.238.357,4.754,4.754,0,0,0,2.852-1.545,2.377,2.377,0,0,0,.594-.832c.119-.357,0-.475-.238-.357s-.713,1.189-1.9,1.189Zm-10.1-7.131c0-.475-.238-.832-.475-.832s-.357.238-.475.713a2.734,2.734,0,0,1-1.545,1.545c-.357.238-.832.238-.832.713s.357.594.832.594a2.615,2.615,0,0,0,2.615-2.734Zm-1.07-6.3c-.238,0-.238.238-.238.713s-.475,2.02-1.545,2.02a5.467,5.467,0,0,0,.594-2.258c0-1.189-.238-2.258-.951-2.258s-1.545,1.307-1.545,2.734.119.357.238.357.119-.119.238-.238.475-1.545.951-1.545.357.475.357.832A3.8,3.8,0,0,1,217.682,61c-.119.119-.594.475-.594.713a.357.357,0,0,0,.357.357c.594,0,1.664-.951,1.664-.951a3.7,3.7,0,0,1,.713-.475c.119,0,.119.119.119.238a4.246,4.246,0,0,1-1.426,2.377c-1.189,1.07-.357.357-.357.594a.511.511,0,0,0,.475.475c.238,0,2.258-1.664,2.258-3.09a2.141,2.141,0,0,0-.119-.594,2.258,2.258,0,0,0,.951-1.9c0-.713-.357-1.189-.594-1.189Zm-6.537.475a6.18,6.18,0,0,0,.594-2.615,3.8,3.8,0,0,0-.475-1.9,3.328,3.328,0,0,0-2.258-1.783.668.668,0,0,0-.713.594c0,.238.951,1.189,1.426,1.664a4.279,4.279,0,0,1,1.07,2.971c0,.357-.119.832-.119,1.07l.238.238Zm9.746,9.033V66.7c0-.119-.119-.357-.475-.357h-.238c-.357,0-.594.119-.713.594s.238.475.475.475h.357a.832.832,0,0,0,.832-.475Zm1.426-7.012q-.178-.357-.357-.357c-.119,0-.238.238-.238.594a5.111,5.111,0,0,1-1.07,3.09c-.475.475.475,1.307.951.594a4.517,4.517,0,0,0,.951-3.922Zm-10.578-.238c-.238.357-.951.832-.951,1.426s.238.594.594.594,1.307-1.189,1.307-2.852-.119-1.426-.357-1.426-.119.594-.119.832a2.852,2.852,0,0,1-.238,1.426Zm7.963,6.061v-.475h-.119l-.238.238c-2.02,1.9-3.328,1.307-4.635,1.545a.594.594,0,0,0-.594.713c0,.357.713.832,1.9.594a5.467,5.467,0,0,0,3.922-2.615ZM210.313,51.847c.357.951.357,2.615-.951,2.615h-.951c-.238,0-.951.119-.951.832s.713,1.189,1.545,1.189a2.377,2.377,0,0,0,2.377-2.5C211.5,53.273,211.264,52.084,210.313,51.847Zm23.652,22.582c-.357,0-.475,1.307-1.426,1.307h-.594a.357.357,0,0,0-.357.357c0,.357.238.713,1.07.713S234.8,74.428,233.965,74.428Zm-1.783,5.111c-.475,0-.594,1.189-1.783,1.189h-.713a.357.357,0,0,0-.357.357c0,.357.357.713,1.307.713S233.014,79.658,232.182,79.539Zm1.664-1.783c.238-.594-.357-1.07-.713-.594a3.684,3.684,0,0,1-2.5,1.426c-.119,0-.238-.238-.238-.357a.357.357,0,0,1,.238-.238c.951-.119,1.307-.713,1.307-1.07s-.238-.238-.238-.238a2,2,0,0,1-1.545.594,4.873,4.873,0,0,1-1.426-.238.315.315,0,0,0-.357.357.475.475,0,0,0,.238.475l1.189.238a.238.238,0,0,1,.238.238c0,.475-.357.594-.832.594a1.426,1.426,0,0,1-1.307-1.07,2.377,2.377,0,0,1-1.545.357,2.852,2.852,0,0,1-1.545-.594c-.238-.119-.357,0-.357.119a2.139,2.139,0,0,0,1.9,2.139,2.615,2.615,0,0,0,1.9-.713,1.426,1.426,0,0,0,1.426.832,2.734,2.734,0,0,0,1.307-.357l1.189-.594a2.734,2.734,0,0,0,1.664-1.189Zm-11.053-2.615a2.852,2.852,0,0,0,2.852,2.02l1.664-.357a2.377,2.377,0,0,0,2.971-1.426c0-.119.119-.594,0-.594l-.357.357a1.9,1.9,0,0,1-2.258.594,2.5,2.5,0,0,1-1.307.357,2.733,2.733,0,0,1-1.783-.475c-.238-.119,0-.357.238-.238s2.139.475,2.5-.594a1.307,1.307,0,0,0,1.07.357c.713,0,1.307-1.07,1.426-1.783s0-.594-.119-.594l-.238.238c-.357.594-.713,1.307-1.545,1.307a1.545,1.545,0,0,1-1.07-.594,4.041,4.041,0,0,1-3.566.357c-.475-.119-.713.357-.475,1.189ZM226,70.15a8.557,8.557,0,0,1-3.09.475c-1.189,0-2.139-.594-2.139-1.07v-.238h.357a3.922,3.922,0,0,0,3.684-.119,1.038,1.038,0,0,0,.713-.951c0-.238-.119-.238-.119-.238l-.832.238a5.111,5.111,0,0,1-1.9.238,3.328,3.328,0,0,1-2.615-.951H219.7c-.238,0-.475.238-.475.832a1.307,1.307,0,0,0,.594.832,1.9,1.9,0,0,0,.832,1.783c1.426,1.07,4.635.594,5.7-.357s.475-.713-.357-.475Zm2.615,2.377c.238-.357.119-.713-.238-.594s-1.189,1.189-2.377.357-3.209.594-3.684-.357-.475-.119-.475,0a1.664,1.664,0,0,0,.594,1.426,2.615,2.615,0,0,0,3.684-.475,1.664,1.664,0,0,0,2.5-.357Zm2.971,19.016a14.856,14.856,0,0,0-.713,3.684,3.565,3.565,0,0,0,2.971-3.684c-.713-.238-.594-1.189.238-1.307s.713-.475.594-.951a3.922,3.922,0,0,1-.713-1.9,77.975,77.975,0,0,1-.238-8.8c-.951.475-1.307.951-1.188,2.5s.119,2.258.475,7.012c.238,1.307,0,3.09-1.426,3.447ZM206.51,55.412a1.545,1.545,0,0,0-1.307,1.664,1.307,1.307,0,0,0,1.426,1.426,1.426,1.426,0,0,0,1.426-1.189c0-.238-.119-.475-.357-.475s-.475.475-.951.475-.594-.832-.357-1.307S206.629,55.412,206.51,55.412Zm9.152,12.479c-.594.238-1.07.357-1.07.951a.594.594,0,0,0,.594.475c.951,0,2.139-1.545,2.615-2.377a3.209,3.209,0,0,1,.238-1.07c.119-.357,0-.594-.119-.594s-.238.119-.238.357A4.041,4.041,0,0,1,215.661,67.892Zm16.283,21.274a29.951,29.951,0,0,0-.594-7.607,2.055,2.055,0,0,1-1.189-.119c.594,2.02,1.189,6.775.594,8.8a1.426,1.426,0,0,0,.713.594,4.4,4.4,0,0,0,.475-1.783Zm-5.229-6.418c0-.238.119-.238.475-.475s.713-.357.713-.832-.238-.357-.594-.357-1.783.119-2.377-.713a12.361,12.361,0,0,1,1.189,3.922,11.41,11.41,0,0,1-.357,5.348c.119.357.594.713.713.357a12.242,12.242,0,0,0,.594-6.061Zm1.9,7.25c.238-.119.357-.119.475-.475s-.119-.713-.119-1.07a30.781,30.781,0,0,0,0-6.18,1.545,1.545,0,0,1-.832.832,40.535,40.535,0,0,1-.119,6.061,2.615,2.615,0,0,1-1.664,2.377,9.865,9.865,0,0,0-.238,3.328,3.566,3.566,0,0,0,2.5-3.566.713.713,0,1,1,0-1.426Zm-20.2-24.84a13.786,13.786,0,0,0-2.971.832c-.713.357-.713.951-.713,1.545a19.015,19.015,0,0,0,.713,3.328c.119.713.119,1.426.832,1.189s-.119-2.02-.119-2.971a2.317,2.317,0,0,1,1.664-1.9,2.615,2.615,0,0,1,.713-2.139Zm22.582,26.5a1.9,1.9,0,0,1-.713-.713,4.516,4.516,0,0,0-1.07,2.852,1.783,1.783,0,0,0,.832,1.664,12.243,12.243,0,0,1,.951-4.041Zm-5.111-.594a1.9,1.9,0,0,1-.713-.713,2.852,2.852,0,0,0,0,4.041,10.7,10.7,0,0,1,.713-3.328Z" transform="translate(-195.1 6.391)"/></g><g transform="translate(0 69.647)"><path class="a" d="M361.625,114.134c9.865-3.566,19.967-12.361,19.967-24.008a17.828,17.828,0,0,0-4.279-11.766c11.766-9.152,23.057-17.471,40.172-17.471,20.443,0,31.377,10.1,31.377,20.086,0,12.479-12.361,19.611-29.713,19.611s-25.2-9.627-28.049-12.6c-.832-.832-1.189-1.545-1.664-1.545a.357.357,0,0,0-.475.475c0,.475.357.951,1.189,1.9,3.566,3.8,12,13.193,29.475,13.193s30.664-8.32,30.664-20.68S436.858,59.7,418.317,59.7s-31.5,7.131-44.094,15.807c-5.111-4.516-16.164-8.2-28.643-8.2-29.713,0-50.037,18.66-50.037,33.041,0,8.557,5.586,14.025,14.262,14.025,20.8,0,32.328-26.5,32.328-37.795a.594.594,0,0,0-.594-.713c-.475,0-.594.357-.832,1.426-2.021,16.283-13.906,35.656-30.783,35.656-9.508,0-13.193-6.18-13.193-12.479,0-14.738,20.918-31.852,48.848-31.852,8.914,0,19.254,3.8,24.365,9.865a128.949,128.949,0,0,0-17.709,16.758c-7.844,8.557-20.918,23.651-24.6,27.811-5.348,6.061-26.266,31.971-53.483,31.971-21.037,0-34.824-9.27-34.824-21.988,0-10.7,13.549-24.483,34.586-24.483,14.738,0,19.967,7.725,19.967,14.619,0,10.815-14.143,20.2-29.475,20.2a21.631,21.631,0,0,1-6.537-.832l-.951-.238a.475.475,0,0,0-.594.594c0,.594.832.951,2.02,1.188a30.664,30.664,0,0,0,6.061.594c15.57,0,30.664-9.746,30.664-21.631,0-8.2-6.18-15.926-21.037-15.926-19.016,0-36.131,12.123-36.131,25.91s16.164,23.295,36.012,23.295c32.565,0,51.344-21.393,59.426-30.783l10.221-11.766c.475,1.307,2.02,2.734,6.3,2.734a32.8,32.8,0,0,0,7.131-.832,22.225,22.225,0,0,1,2.5,10.7c0,13.311-13.787,29.119-25.2,29.119-5.111,0-9.033-3.8-9.033-8.32,0-11.647,18.541-22.225,30.188-22.225a.713.713,0,0,0,.713-.713.594.594,0,0,0-.713-.594c-12.242,0-31.5,10.815-31.5,23.533,0,4.992,4.279,9.627,11.291,9.627,16.4,0,31.139-14.5,31.139-30.307A18.3,18.3,0,0,0,361.625,114.134ZM356.4,98.8a147.966,147.966,0,0,1,16.283-16.639,19.136,19.136,0,0,1,2.021,8.914c0,8.557-7.488,17-15.57,20.918a17.471,17.471,0,0,0-10.459-2.971h-1.307Zm-7.25,16.164c-2.852,0-4.16-1.189-4.16-2.377s1.307-2.258,3.566-2.258a9.389,9.389,0,0,1,7.131,3.209,20.323,20.323,0,0,1-6.656,1.426Zm12.6-.832c9.865-3.566,19.967-12.361,19.967-24.008a17.827,17.827,0,0,0-4.279-11.766C389.2,69.208,400.489,60.889,417.6,60.889c20.443,0,31.377,10.1,31.377,20.086,0,12.479-12.361,19.611-29.713,19.611s-25.2-9.627-28.049-12.6c-.832-.832-1.188-1.545-1.664-1.545a.357.357,0,0,0-.475.475c0,.475.357.951,1.188,1.9,3.566,3.8,12,13.193,29.475,13.193s30.664-8.32,30.664-20.68S436.977,59.7,418.436,59.7s-31.5,7.131-44.094,15.807c-5.111-4.516-16.164-8.2-28.643-8.2-29.713,0-50.037,18.66-50.037,33.041,0,8.557,5.586,14.025,14.262,14.025,20.8,0,32.328-26.5,32.328-37.795a.594.594,0,0,0-.594-.713c-.475,0-.594.357-.832,1.426-2.02,16.283-13.906,35.656-30.783,35.656-9.508,0-13.193-6.18-13.193-12.479,0-14.738,20.918-31.852,48.848-31.852,8.914,0,19.254,3.8,24.365,9.865a128.953,128.953,0,0,0-17.709,16.758c-7.844,8.557-20.918,23.651-24.6,27.811-5.348,6.061-26.266,31.971-53.483,31.971-21.037,0-34.824-9.27-34.824-21.988,0-10.7,13.549-24.483,34.586-24.483,14.738,0,19.967,7.725,19.967,14.619,0,10.815-14.143,20.2-29.475,20.2a21.631,21.631,0,0,1-6.537-.832l-.951-.238a.475.475,0,0,0-.594.594c0,.594.832.951,2.021,1.188a30.664,30.664,0,0,0,6.061.594c15.57,0,30.664-9.746,30.664-21.631,0-8.2-6.18-15.926-21.037-15.926-19.016,0-36.131,12.123-36.131,25.91s16.164,23.295,36.012,23.295c32.565,0,51.344-21.393,59.426-30.783l10.221-11.766c.475,1.307,2.021,2.734,6.3,2.734a32.8,32.8,0,0,0,7.131-.832,22.225,22.225,0,0,1,2.5,10.7c0,13.311-13.787,29.119-25.2,29.119-5.111,0-9.033-3.8-9.033-8.32,0-11.647,18.541-22.225,30.188-22.225a.713.713,0,0,0,.713-.713.594.594,0,0,0-.713-.594c-12.242,0-31.5,10.815-31.5,23.533,0,4.992,4.279,9.627,11.291,9.627,16.4,0,31.139-14.5,31.139-30.307a18.3,18.3,0,0,0-4.873-12.361ZM356.514,98.8A147.972,147.972,0,0,1,372.8,82.163a19.134,19.134,0,0,1,2.021,8.914c0,8.557-7.488,17-15.57,20.918a17.471,17.471,0,0,0-10.459-2.971h-1.307Zm-7.25,16.164c-2.852,0-4.16-1.189-4.16-2.377s1.307-2.258,3.565-2.258a9.389,9.389,0,0,1,7.012,3.209,20.324,20.324,0,0,1-6.656,1.426ZM488.915,142.3c10.934-3.209,18.065-11.291,18.065-14.619,0-.832-.238-1.664-1.307-1.664-3.328,0-10.934,8.8-16.877,16.283Zm-69.647-1.664a3.209,3.209,0,0,1-2.258-3.09c0-4.873,8.914-3.8,8.914-9.27a2.258,2.258,0,0,0-2.615-2.139c-7.25,0-24.365,20.918-24.365,25.91a2.5,2.5,0,0,0,2.377,2.734c5.7-.119,16.045-11.885,17.828-14.143Zm128.954,2.139a21.513,21.513,0,0,0,3.209-11.41c0-.713-.119-2.734-.119-3.328a4.4,4.4,0,0,1,.356-2.139,79.986,79.986,0,0,1-16.52,17.234,2.258,2.258,0,0,1,1.426,2.258c0,2.139-1.664,3.447-4.635,3.447s-4.279,1.189-4.279,2.615,1.9,2.377,3.09,2.377C536.931,154.068,543.943,149.908,548.222,142.777ZM473.94,107.954l5.229-6.893a8.438,8.438,0,0,0,4.754-1.189l.713-.357a.238.238,0,0,1,.238.238,6.3,6.3,0,0,1-1.07,1.426l-2.852,4.041c-.357.475-4.992,7.012-11.053,14.738s-16.045,19.848-19.016,23.295l.475.357c10.34-11.647,20.443-18.779,25.91-18.779,3.209,0,4.873,2.02,4.873,4.4,0,8.082-16.877,16.52-16.877,23.176a2.02,2.02,0,0,0,2.139,2.02c4.754,0,11.766-9.865,18.066-16.4,4.041-4.279,13.906-13.311,20.68-13.311a3.209,3.209,0,0,1,3.447,3.209c0,5.348-9.033,12-21.512,15.688-1.189,1.664-3.447,5.229-3.447,7.488a3.209,3.209,0,0,0,3.328,3.447c9.152,0,30.069-21.75,33.516-29.713a3.09,3.09,0,0,1-1.07-2.615,2.615,2.615,0,0,1,2.258-2.852,1.545,1.545,0,0,1,1.545,1.783,7.489,7.489,0,0,1-.951,3.09,40.409,40.409,0,0,0,4.992.832c2.734.475,4.279,1.664,4.279,3.922s-2.852,6.061-4.635,7.963l-8.2,9.033c-2.258,2.5-2.971,3.684-2.971,5.229a2.02,2.02,0,0,0,1.9,2.02c2.377,0,3.922-1.189,6.3-2.971q-.086-.532-.119-1.07c0-3.566,3.566-6.656,7.963-6.656h.832c7.963-6.061,14.975-13.787,17-17.709s2.734-6.893,5.943-6.893a1.307,1.307,0,0,1,1.307,1.307c0,2.615-4.754,3.684-4.754,7.844s1.307,4.754,1.307,10.1-1.664,11.529-8.438,14.856l.238.238c14.262-4.873,22.225-13.906,27.692-21.393.238-.357.475-.832.832-.832a.475.475,0,0,1,.476.475,2.257,2.257,0,0,1-.476,1.188c-3.328,4.4-17.115,23.414-41.36,23.414-5.348,0-7.369-2.02-7.963-3.8-2.971,2.5-5.467,3.8-7.607,3.8a5.111,5.111,0,0,1-5.467-5.348c0-2.139,1.307-4.635,5.111-8.557l7.131-7.963c1.426-1.545,3.684-3.684,3.684-5.7s-.475-1.664-2.258-2.02a20.684,20.684,0,0,1-3.447-.594c-3.922,8.2-24.365,30.426-35.655,30.426-5.111,0-7.25-2.971-7.25-5.824a11.172,11.172,0,0,1,1.188-4.635l-.238-.238c-2.021,2.377-8.438,10.7-14.024,10.7s-6.061-2.139-6.061-4.873c0-9.033,18.541-18.9,18.541-23.176,0-.832-.238-1.664-2.021-1.664-6.775,0-21.274,13.549-30.664,25.2l-2.615,3.328a23.174,23.174,0,0,1-4.4.357,1.035,1.035,0,0,1-1.189-1.07,2.852,2.852,0,0,1,.713-1.545l4.16-5.348-.357-.238c-3.684,3.922-9.865,8.8-15.688,8.8-2.852,0-5.111-1.9-5.111-4.4a9.032,9.032,0,0,1,2.377-5.586l7.012-8.914-.238-.238a18.184,18.184,0,0,1-10.459,4.16c-4.16,5.229-13.549,14.975-19.848,14.975-3.566,0-5.824-2.02-5.824-5.7a9.747,9.747,0,0,1,.951-4.041v-.238c-1.664,1.9-8.2,9.746-13.311,9.746a5.111,5.111,0,0,1-5.467-5.348c0-2.139,1.545-4.754,4.992-8.557l7.607-8.438c1.07-1.189,3.328-3.447,3.328-5.229s-.475-1.664-2.258-2.02a22.581,22.581,0,0,1-3.447-.594c-3.922,8.082-16.639,19.729-24.483,24.127l-.594.238a.594.594,0,0,1-.594-.594.832.832,0,0,1,.475-.713c5.467-3.209,17.947-12.836,23.889-23.533a3.09,3.09,0,0,1-1.07-2.615,2.615,2.615,0,0,1,2.258-2.852,1.545,1.545,0,0,1,1.545,1.783,7.488,7.488,0,0,1-.951,3.09,31.617,31.617,0,0,0,4.873.832c3.09.357,4.4,1.9,4.4,3.922s-2.971,6.18-4.516,7.963l-8.2,9.152c-1.07,1.189-2.971,3.09-2.971,5.348a1.9,1.9,0,0,0,2.02,2.02c2.5,0,6.3-2.971,10.934-8.082,7.963-8.8,18.779-20.68,28.643-20.68a3.922,3.922,0,0,1,4.16,4.041c0,2.734-2.971,7.607-5.7,11.172,4.279-.119,11.529-4.992,16.4-11.053l4.516-5.7h-9.508c.594-.832.713-1.307,2.258-1.307h7.369c5.7-1.664,9.508-5.7,16.4-13.787a.951.951,0,0,1,.713-.357.594.594,0,0,1,.594.594.832.832,0,0,1-.238.475l-10.221,13.074h6.775c-.713,1.189-.951,1.307-2.139,1.307h-5.7L430.559,145.63c-2.5,3.209-3.8,4.635-3.8,6.3s.475,1.9,2.021,1.9c3.8,0,12.479-5.586,19.254-14.025Z" transform="translate(44.848 -58.393)"/><path class="a" d="M172.573,138.468a3.209,3.209,0,0,0,2.139,3.09c-2.5,3.09-12.123,13.193-17.234,13.193-2.02,0-2.615-1.307-2.615-2.852,0-5.7,17.828-25.434,24.127-25.434,1.664,0,2.377.832,2.377,2.139C181.368,132.526,172.573,133,172.573,138.468Zm30.069-1.07a2.377,2.377,0,0,0,1.783,2.5c-2.5,3.328-12.836,14.856-18.422,14.856a2.258,2.258,0,0,1-2.377-2.5c0-5.467,17.59-25.91,24.127-25.91a2.021,2.021,0,0,1,2.258,2.139C210.011,132.645,202.642,133.239,202.642,137.4Zm42.787,17c-2.02,0-3.328-.951-3.328-2.377s1.545-2.734,3.922-2.734,4.992-1.189,4.992-3.447a2.258,2.258,0,0,0-1.426-2.258c5.348-3.684,14.025-13.074,16.52-17.234a3.923,3.923,0,0,0-.357,1.9c0,1.07.119,2.5.119,3.8,0,12.242-11.529,22.225-20.443,22.225ZM121.11,115.173c9.746-4.16,18.3-14.262,18.3-26.623a18.184,18.184,0,0,0-3.684-10.934c11.647-8.914,27.1-17.59,45.283-17.59,21.037,0,29.356,11.529,29.356,22.463,0,19.848-21.274,31.02-43.737,31.02a60.378,60.378,0,0,1-14.143-1.545l-2.5-.594a.475.475,0,0,0-.475.475c0,.475.357.713,1.664,1.07a65.37,65.37,0,0,0,15.213,2.02c23.651,0,45.164-12,45.164-32.447,0-13.43-10.816-23.889-30.664-23.889s-35.774,7.369-48.135,15.807c-4.873-4.279-12.717-7.131-24.246-7.131-28.168,0-50.631,19.016-50.631,33.635,0,7.607,5.467,13.549,14.975,13.549,20.561,0,34.348-25.315,37.2-32.09a7.725,7.725,0,0,0,.713-2.377c0-.475-.238-.594-.475-.594s-.594.357-.832.951c-6.656,15.807-20.324,32.8-36.725,32.8-8.914,0-13.43-5.7-13.43-12.242,0-14.975,23.889-32.328,49.442-32.328,9.746,0,16.4,3.922,20.2,8.676a134.421,134.421,0,0,0-19.016,17.828c-8.557,9.389-19.967,22.344-24.6,27.574C74.4,135.141,57.049,154.632,31.971,154.632c-20.8,0-30.664-10.459-30.664-23.652,0-11.053,10.459-24.365,32.209-24.365,14.262,0,19.611,6.537,19.611,13.43,0,11.172-12.717,19.492-27.455,19.492a19.61,19.61,0,0,1-6.3-.951l-.951-.238a.594.594,0,0,0-.594.594c0,.475.475.832,2.139,1.189a23.413,23.413,0,0,0,6.061.713c14.738,0,28.287-9.033,28.287-20.68,0-8.2-6.418-14.975-20.918-14.975C12.242,105.19,0,117.907,0,130.743c0,15.094,11.766,25.078,31.5,25.078,32.328,0,51.344-21.631,59.426-30.783l23.057-26.5a149.039,149.039,0,0,1,17.352-17.471A17.947,17.947,0,0,1,133,88.551a29.594,29.594,0,0,1-13.668,24.6,11.291,11.291,0,0,0-7.369-2.734c-3.684,0-4.992,1.9-4.992,3.447s.832,3.447,4.635,3.447a23.77,23.77,0,0,0,6.893-1.07,16.283,16.283,0,0,1,.951,6.061c0,13.074-15.213,33.041-27.574,33.041-6.18,0-8.914-4.516-8.914-7.963,0-10.934,14.738-19.967,29.475-24.6.951-.357,1.783-.594,1.783-1.07s-.119-.357-.475-.357a12,12,0,0,0-2.5.594c-15.094,4.516-29.594,14.5-29.594,24.721,0,4.635,2.852,9.984,10.816,9.984,17,0,31.971-14.975,31.971-31.971a15.688,15.688,0,0,0-3.328-9.627Zm-10.221.594c-1.545,0-2.258-.832-2.258-1.664s1.307-2.139,3.328-2.139a6.894,6.894,0,0,1,5.111,2.377,15.569,15.569,0,0,1-6.18,1.307Zm113.5,12c-5.111,6.418-12.6,11.885-17.59,11.291,2.258-2.5,4.754-6.18,4.754-9.865s-1.307-4.279-4.992-4.279c-7.844,0-17.471,8.914-19.016,10.34s-5.824,5.467-10.7,5.7c2.377-3.209,5.824-8.557,5.824-12.123a3.8,3.8,0,0,0-4.16-3.8c-9.865,0-20.561,12-28.524,20.8-4.635,5.111-8.557,8.2-11.053,8.2a1.9,1.9,0,0,1-2.02-2.02c0-1.9,1.307-3.566,2.5-4.754l8.32-9.27c1.664-1.783,4.873-5.467,4.873-8.32s-1.07-3.566-4.754-4.041a28.764,28.764,0,0,1-4.516-.713,7.488,7.488,0,0,0,.951-3.09,1.545,1.545,0,0,0-1.545-1.783,2.615,2.615,0,0,0-2.258,2.852,3.09,3.09,0,0,0,1.07,2.615c-5.943,10.7-18.422,20.324-23.889,23.533a.832.832,0,0,0-.475.713.594.594,0,0,0,.594.594l.594-.238c7.844-4.4,20.443-16.045,24.365-24.127a20.443,20.443,0,0,0,3.328.594c1.9.238,2.377,1.07,2.377,1.9s-1.9,3.684-3.209,5.229l-7.488,8.438c-3.566,3.922-5.111,6.418-5.111,8.557a5.111,5.111,0,0,0,5.467,5.348c5.229,0,12.123-8.438,13.549-9.865v.238a9.745,9.745,0,0,0-.832,4.041c0,3.566,2.258,5.7,5.824,5.7,6.3,0,15.688-9.508,19.373-14.143h.713a13.312,13.312,0,0,0,7.488-2.5l.238.238c-1.307,1.9-4.992,6.537-4.992,10.934a5.111,5.111,0,0,0,5.467,5.467c7.963,0,18.9-13.549,20.8-15.926a17.709,17.709,0,0,0,11.885-4.4l.238.238s-10.1,12.479-13.311,16.639a3.3,3.3,0,0,0-.951,1.783,1.338,1.338,0,0,0,1.426,1.189,10.578,10.578,0,0,0,4.4-.713l2.377-3.209c4.279-5.586,21.512-25.078,28.168-25.078a1.545,1.545,0,0,1,1.664,1.545c0,2.852-4.16,7.725-8.676,9.508a6.3,6.3,0,0,0-4.041-1.664,1.664,1.664,0,0,0-1.783,1.426c0,1.189,1.426,1.9,3.09,1.9H232c0,1.07-.951,2.02-2.02,3.328s-5.7,6.3-5.7,9.033,2.377,4.754,6.061,4.754,8.082-3.09,9.033-3.8c.594,1.545,2.02,3.8,8.676,3.8,11.647,0,18.3-5.348,23.057-10.1.594-.594.594-.713.594-.951a.475.475,0,0,0-.475-.475.859.859,0,0,0-.713.475,46.352,46.352,0,0,1-7.725,6.3h-.119c3.447-2.734,5.7-6.775,5.7-13.193s-1.307-6.537-1.307-10.221a5.943,5.943,0,0,1,2.139-4.279c1.07-1.07,2.5-2.02,2.5-3.447a1.307,1.307,0,0,0-1.189-1.307c-1.9,0-2.852,1.545-3.447,2.734a31.022,31.022,0,0,1-3.684,5.943c-5.943,7.488-9.508,11.291-15.807,15.926h-.357c-4.516,0-8.676,3.566-7.844,7.725-1.664,1.189-4.873,3.8-7.725,3.8a1.783,1.783,0,0,1-2.02-1.783c0-3.447,5.586-6.3,5.586-11.648a4.754,4.754,0,0,0-.832-2.734c5.348-1.545,11.766-6.061,11.766-10.816a2.971,2.971,0,0,0-3.209-3.328c-6.418,0-15.213,7.369-25.791,19.373l-.357-.357c2.971-3.447,11.766-14.143,19.016-23.295s10.7-14.262,11.053-14.738l2.971-3.922a6.18,6.18,0,0,0,1.07-1.426.238.238,0,0,0-.238-.238l-.713.357a8.319,8.319,0,0,1-4.754,1.189l-5.229,6.893Z" transform="translate(0 -58.6)"/></g></g></g></svg>